<?xml version="1.0" standalone="no"?>
<!DOCTYPE svg PUBLIC "-//W3C//DTD SVG 1.1//EN" "http://www.w3.org/Graphics/SVG/1.1/DTD/svg11.dtd" >
<svg xmlns="http://www.w3.org/2000/svg" xmlns:xlink="http://www.w3.org/1999/xlink" version="1.1">
<metadata>
Created by FontForge 20170731 at Mon Sep 14 16:44:34 2020
 By Aleksey,,,
Copyright 2006 House Industries/Brand Design Co., Inc. All Rights Reserved.
</metadata>
<defs>
<font id="UnitedSansReg-Black" horiz-adv-x="1263" >
  <font-face 
    font-family="United Sans Rg Bk"
    font-weight="800"
    font-stretch="normal"
    units-per-em="2048"
    panose-1="0 0 0 0 0 0 0 0 0 0"
    ascent="1556"
    descent="-492"
    x-height="1051"
    cap-height="1413"
    bbox="-121 -371 2519 1841"
    underline-thickness="102"
    underline-position="-307"
    unicode-range="U+0020-FB02"
  />
<missing-glyph horiz-adv-x="1611" 
d="M61 1589h1489v-1765h-1489v1765zM535 702v-296h389v118l32 35h256l174 174v475l-204 205h-770l-199 -199v-247h389v123l45 45h301l51 -52v-186l-34 -35h-271zM535 291v-291h389v291h-389z" />
    <glyph glyph-name=".notdef" horiz-adv-x="1611" 
d="M61 1589h1489v-1765h-1489v1765zM535 702v-296h389v118l32 35h256l174 174v475l-204 205h-770l-199 -199v-247h389v123l45 45h301l51 -52v-186l-34 -35h-271zM535 291v-291h389v291h-389z" />
    <glyph glyph-name=".null" horiz-adv-x="0" 
 />
    <glyph glyph-name="nonmarkingreturn" horiz-adv-x="682" 
 />
    <glyph glyph-name="space" unicode=" " horiz-adv-x="501" 
 />
    <glyph glyph-name="exclam" unicode="!" horiz-adv-x="638" 
d="M125 408v1005h389v-1005h-389zM125 0v291h389v-291h-389z" />
    <glyph glyph-name="quotedbl" unicode="&#x22;" horiz-adv-x="761" 
d="M436 817v596h271v-596h-271zM57 817v596h269v-596h-269z" />
    <glyph glyph-name="numbersign" unicode="#" horiz-adv-x="1204" 
d="M211 297v207h-164v237h164v228h-164v239h164v205h283v-205h217v205h282v-205h166v-239h-166v-228h166v-237h-166v-207h-282v207h-217v-207h-283zM494 741h217v228h-217v-228z" />
    <glyph glyph-name="dollar" unicode="$" horiz-adv-x="1343" 
d="M279 39l-199 199v206h387v-88l39 -39h328l40 43v166l-30 31h-584l-174 176v436l205 207h207v207h358v-207h205l199 -200v-207h-388v90l-38 39h-318l-41 -43v-160l31 -33h584l174 -174v-444l-205 -205h-203v-209h-358v209h-219z" />
    <glyph glyph-name="percent" unicode="%" horiz-adv-x="1746" 
d="M180 711l-147 147v410l145 145h424l146 -145v-412l-146 -145h-422zM317 895h148l33 33v274l-33 33h-148l-34 -33v-274zM1145 0l-146 145v412l146 145h422l147 -147v-410l-145 -145h-424zM1282 180h148l34 33v274l-34 33h-148l-33 -33v-274zM317 0l859 1413h254
l-859 -1413h-254z" />
    <glyph glyph-name="ampersand" unicode="&#x26;" horiz-adv-x="1390" 
d="M279 0l-197 197v360l164 164l-160 162v334l195 196h778l198 -199v-200h-389v86l-43 43h-303l-49 -47v-203l49 -47h858v-268h-127v-381l-196 -197h-778zM518 270h299l47 47v261h-346l-47 -50v-211z" />
    <glyph glyph-name="quotesingle" unicode="'" horiz-adv-x="380" 
d="M57 817v596h269v-596h-269z" />
    <glyph glyph-name="parenleft" unicode="(" horiz-adv-x="765" 
d="M332 -145l-217 219v1263l217 219h383v-286h-150l-69 -70v-989l69 -70h150v-286h-383z" />
    <glyph glyph-name="parenright" unicode=")" horiz-adv-x="765" 
d="M653 74l-219 -219h-383v286h150l69 70v989l-69 70h-150v286h383l219 -219v-1263z" />
    <glyph glyph-name="asterisk" unicode="*" horiz-adv-x="731" 
d="M279 719l-222 162l176 147l-223 23l88 260l183 -127l-60 229h287l-59 -229l184 127l88 -260l-225 -23l176 -147l-221 -162l-86 213z" />
    <glyph glyph-name="plus" unicode="+" horiz-adv-x="847" 
d="M27 567v281h252v256h292v-256h250v-281h-250v-258h-292v258h-252z" />
    <glyph glyph-name="comma" unicode="," horiz-adv-x="471" 
d="M63 -252v135h136l10 11v106h-146v354h347v-487l-119 -119h-228z" />
    <glyph glyph-name="hyphen" unicode="-" horiz-adv-x="628" 
d="M27 561v301h575v-301h-575z" />
    <glyph glyph-name="period" unicode="." horiz-adv-x="471" 
d="M63 0v354h347v-354h-347z" />
    <glyph glyph-name="slash" unicode="/" horiz-adv-x="790" 
d="M-33 -147l510 1706h346l-510 -1706h-346z" />
    <glyph glyph-name="zero" unicode="0" horiz-adv-x="1394" 
d="M309 0l-217 217v979l217 217h774l220 -217v-979l-220 -217h-774zM551 285h293l69 69v705l-69 69h-293l-70 -69v-705z" />
    <glyph glyph-name="one" unicode="1" horiz-adv-x="1054" 
d="M92 0v289h260v835h-260v289h649v-1124h263v-289h-912z" />
    <glyph glyph-name="two" unicode="2" horiz-adv-x="1304" 
d="M90 0v639l174 176h553l33 31v256l-29 26h-311l-29 -26v-131h-389v243l201 199h739l207 -205v-522l-176 -174h-553l-33 -33v-180h762v-299h-1149z" />
    <glyph glyph-name="three" unicode="3" horiz-adv-x="1366" 
d="M264 0l-194 197v254h387v-138l45 -43h346l49 47v213l-49 48h-531v280h529l47 49v185l-47 47h-344l-45 -43v-127h-387v248l194 196h821l197 -196v-334l-162 -160l164 -166v-360l-194 -197h-826z" />
    <glyph glyph-name="four" unicode="4" horiz-adv-x="1337" 
d="M788 0v350h-761v230l266 833h354l-205 -762h346v762h386v-762h133v-301h-133v-350h-386z" />
    <glyph glyph-name="five" unicode="5" horiz-adv-x="1327" 
d="M291 0l-199 199v239h387v-119l39 -38h303l43 41v313l-33 33h-299l-73 -76h-367v821h1135v-295h-748v-270l101 98h483l190 -188v-553l-206 -205h-756z" />
    <glyph glyph-name="six" unicode="6" horiz-adv-x="1392" 
d="M297 0l-205 205v1003l205 205h819l199 -199v-215h-389v93l-45 43h-336l-64 -62v-287l103 105h532l199 -199v-487l-205 -205h-813zM532 279h342l52 51v239l-43 43h-357l-45 -47v-235z" />
    <glyph glyph-name="seven" unicode="7" horiz-adv-x="1150" 
d="M336 0v528l336 574h-645v311h1103v-242l-405 -677v-494h-389z" />
    <glyph glyph-name="eight" unicode="8" horiz-adv-x="1396" 
d="M279 0l-197 197v360l164 166l-160 160v334l195 196h835l197 -196v-334l-162 -160l164 -166v-360l-197 -197h-839zM522 266h355l49 51v220l-49 51h-355l-51 -51v-220zM524 850h348l52 51v197l-52 51h-348l-51 -51v-197z" />
    <glyph glyph-name="nine" unicode="9" horiz-adv-x="1390" 
d="M279 0l-199 199v225h387v-100l45 -45h334l63 63v295l-102 -102h-531l-196 198v475l205 205h809l204 -205v-1003l-204 -205h-815zM512 813h352l45 45v225l-51 52h-340l-51 -52v-227z" />
    <glyph glyph-name="colon" unicode=":" horiz-adv-x="516" 
d="M86 0v354h346v-354h-346zM86 569v355h346v-355h-346z" />
    <glyph glyph-name="semicolon" unicode=";" horiz-adv-x="509" 
d="M86 -252v135h135l10 11v106h-145v354h346v-487l-119 -119h-227zM86 569v355h346v-355h-346z" />
    <glyph glyph-name="less" unicode="&#x3c;" horiz-adv-x="907" 
d="M827 215l-792 320v346l792 319v-319l-501 -174l501 -172v-320z" />
    <glyph glyph-name="equal" unicode="=" horiz-adv-x="774" 
d="M51 760v280h672v-280h-672zM51 358v281h672v-281h-672z" />
    <glyph glyph-name="greater" unicode="&#x3e;" horiz-adv-x="907" 
d="M874 535l-794 -320v320l502 172l-502 174v319l794 -319v-346z" />
    <glyph glyph-name="question" unicode="?" horiz-adv-x="1245" 
d="M346 406v296l160 160h270l35 35v186l-51 52h-301l-45 -45v-123h-389v247l198 199h770l205 -205v-475l-174 -174h-256l-33 -35v-118h-389zM346 0v291h389v-291h-389z" />
    <glyph glyph-name="at" unicode="@" horiz-adv-x="2105" 
d="M389 -344l-297 297v1151l297 297h1327l297 -297v-907l-196 -197h-537l-16 137l-140 -137h-444l-176 176v283l176 176h514v160l-35 34h-225l-19 -16v-72h-380v138l172 172h659l197 -197v-641h94l45 45v750l-154 153h-987l-153 -153v-955l153 -153h1016v-244h-1188z
M901 231h221l72 72v148h-293l-29 -29v-162z" />
    <glyph glyph-name="A" unicode="A" horiz-adv-x="1337" 
d="M8 0l371 1413h579l373 -1413h-403l-64 276h-424l-63 -276h-369zM655 1190l-147 -627h291z" />
    <glyph glyph-name="B" unicode="B" horiz-adv-x="1394" 
d="M121 0v1413h991l197 -196v-334l-162 -160l166 -166v-360l-197 -197h-995zM510 268h362l52 51v220l-47 49h-367v-320zM510 852h362l48 47v197l-50 51h-360v-295z" />
    <glyph glyph-name="C" unicode="C" horiz-adv-x="1355" 
d="M309 0l-217 217v979l217 217h760l219 -217v-297h-389v166l-63 63h-285l-70 -69v-713l70 -67h285l63 61v178h389v-301l-219 -217h-760z" />
    <glyph glyph-name="D" unicode="D" horiz-adv-x="1398" 
d="M113 0v1413h974l220 -217v-979l-220 -217h-974zM500 285h348l70 69v705l-70 69h-348v-843z" />
    <glyph glyph-name="E" unicode="E" horiz-adv-x="1191" 
d="M113 0v1413h993v-293h-606v-254h547v-293h-547v-280h610v-293h-997z" />
    <glyph glyph-name="F" unicode="F" horiz-adv-x="1124" 
d="M113 0v1413h968v-293h-581v-297h522v-291h-522v-532h-387z" />
    <glyph glyph-name="G" unicode="G" horiz-adv-x="1388" 
d="M309 0l-217 217v979l217 217h793l205 -205v-245h-389v120l-44 45h-323l-70 -69v-719l70 -68h323l44 43v199h-287v283h676v-592l-205 -205h-793z" />
    <glyph glyph-name="H" unicode="H" horiz-adv-x="1411" 
d="M113 0v1413h387v-557h411v557h389v-1413h-389v518h-411v-518h-387z" />
    <glyph glyph-name="I" unicode="I" horiz-adv-x="989" 
d="M66 0v268h233v879h-233v266h858v-266h-236v-879h236v-268h-858z" />
    <glyph glyph-name="J" unicode="J" horiz-adv-x="894" 
d="M45 0v299h291l70 68v1046h389v-1196l-220 -217h-530z" />
    <glyph glyph-name="K" unicode="K" horiz-adv-x="1392" 
d="M932 0l-244 543l-188 -293v-250h-387v1413h387v-686l413 686h433l-379 -575l395 -838h-430z" />
    <glyph glyph-name="L" unicode="L" horiz-adv-x="1054" 
d="M113 0v1413h387v-1104h516v-309h-903z" />
    <glyph glyph-name="M" unicode="M" horiz-adv-x="1976" 
d="M113 0v1413h587l287 -1057l289 1057h588v-1413h-369v1122l-315 -1122h-432l-308 1122v-1122h-327z" />
    <glyph glyph-name="N" unicode="N" horiz-adv-x="1413" 
d="M113 0v1413h393l450 -829v829h344v-1413h-397l-446 842v-842h-344z" />
    <glyph glyph-name="O" unicode="O" horiz-adv-x="1394" 
d="M309 0l-217 217v979l217 217h774l220 -217v-979l-220 -217h-774zM551 285h293l69 69v705l-69 69h-293l-70 -69v-705z" />
    <glyph glyph-name="P" unicode="P" horiz-adv-x="1349" 
d="M113 0v1413h979l217 -217v-522l-217 -219h-592v-455h-387zM500 725h362l58 57v303l-58 58h-362v-418z" />
    <glyph glyph-name="Q" unicode="Q" horiz-adv-x="1394" 
d="M989 -360l-227 227v133h-453l-217 217v979l217 217h774l220 -217v-979l-220 -217v-10l129 -129zM551 285h293l69 69v705l-69 69h-293l-70 -69v-705z" />
    <glyph glyph-name="R" unicode="R" horiz-adv-x="1376" 
d="M113 0v1413h995l207 -205v-448l-180 -178l211 -582h-404l-178 524h-264v-524h-387zM500 791h370l56 57v246l-56 55h-370v-358z" />
    <glyph glyph-name="S" unicode="S" horiz-adv-x="1343" 
d="M279 0l-199 199v241h387v-116l45 -43h322l40 41v204l-30 31h-584l-174 176v475l205 205h770l199 -199v-241h-388v117l-45 45h-311l-41 -43v-197l31 -33h584l174 -174v-483l-205 -205h-780z" />
    <glyph glyph-name="T" unicode="T" horiz-adv-x="1208" 
d="M410 0v1102h-377v311h1145v-311h-379v-1102h-389z" />
    <glyph glyph-name="U" unicode="U" horiz-adv-x="1382" 
d="M319 0l-219 217v1196h389v-1048l70 -70h264l70 70v1048h389v-1196l-217 -217h-746z" />
    <glyph glyph-name="V" unicode="V" horiz-adv-x="1259" 
d="M338 0l-324 1413h404l229 -1128l230 1128h370l-325 -1413h-584z" />
    <glyph glyph-name="W" unicode="W" horiz-adv-x="1914" 
d="M268 0l-258 1413h367l153 -1055l201 1055h496l200 -1055l154 1055h324l-258 -1413h-482l-202 1065l-203 -1065h-492z" />
    <glyph glyph-name="X" unicode="X" horiz-adv-x="1347" 
d="M27 0l346 723l-326 690h430l203 -485l205 485h413l-342 -686l365 -727h-438l-228 498l-211 -498h-417z" />
    <glyph glyph-name="Y" unicode="Y" horiz-adv-x="1288" 
d="M451 0v416l-443 997h422l229 -618l244 618h379l-444 -997v-416h-387z" />
    <glyph glyph-name="Z" unicode="Z" horiz-adv-x="1161" 
d="M55 0v240l572 862h-561v311h1030v-239l-572 -861h582v-313h-1051z" />
    <glyph glyph-name="bracketleft" unicode="[" horiz-adv-x="776" 
d="M131 -145v1701h592v-286h-211v-1129h211v-286h-592z" />
    <glyph glyph-name="backslash" unicode="\" horiz-adv-x="790" 
d="M313 1559l510 -1706h-344l-512 1706h346z" />
    <glyph glyph-name="bracketright" unicode="]" horiz-adv-x="776" 
d="M647 1556v-1701h-594v286h211v1129h-211v286h594z" />
    <glyph glyph-name="asciicircum" unicode="^" horiz-adv-x="987" 
d="M16 700l279 713h399l277 -713h-312l-165 510l-166 -510h-312z" />
    <glyph glyph-name="underscore" unicode="_" horiz-adv-x="1069" 
d="M-14 -299v248h1097v-248h-1097z" />
    <glyph glyph-name="grave" unicode="`" horiz-adv-x="632" 
d="M295 1122l-162 162v135h205l162 -162v-135h-205z" />
    <glyph glyph-name="a" unicode="a" horiz-adv-x="1220" 
d="M242 0l-176 176v283l176 176h520v160l-35 34h-231l-19 -16v-72h-381v138l172 172h666l196 -197v-854h-282l-17 137l-139 -137h-450zM469 231h221l72 72v148h-293l-29 -29v-162z" />
    <glyph glyph-name="b" unicode="b" horiz-adv-x="1255" 
d="M96 0v1413h371v-479l119 117h393l199 -197v-655l-199 -199h-447l-137 137l-16 -137h-283zM553 233h201l51 52v475l-51 49h-181l-106 -107v-383z" />
    <glyph glyph-name="c" unicode="c" horiz-adv-x="1183" 
d="M276 0l-196 199v655l196 197h672l182 -183v-206h-380v118l-41 41h-207l-51 -51v-489l51 -52h207l41 41v119h380v-207l-182 -182h-672z" />
    <glyph glyph-name="d" unicode="d" horiz-adv-x="1255" 
d="M276 0l-196 199v655l196 197h396l116 -117v479h373v-1413h-282l-19 137l-137 -137h-447zM502 233h200l86 86v383l-106 107h-180l-51 -49v-475z" />
    <glyph glyph-name="e" unicode="e" horiz-adv-x="1208" 
d="M276 0l-196 199v655l196 197h656l196 -197v-410h-690v-176l43 -43h262l17 19v78h368v-154l-165 -168h-687zM438 639h334v152l-39 36h-256l-39 -36v-152z" />
    <glyph glyph-name="f" unicode="f" horiz-adv-x="831" 
d="M168 0v793h-131v258h131v190l172 172h475v-242h-252l-22 -24v-96h254v-258h-254v-793h-373z" />
    <glyph glyph-name="g" unicode="g" horiz-adv-x="1249" 
d="M274 -360l-176 176v129h344v-54l25 -24h270l51 51v242l-116 -117h-396l-196 197v614l196 197h447l137 -138l19 138h282v-1215l-198 -196h-689zM502 276h180l106 107v348l-86 86h-200l-51 -51v-440z" />
    <glyph glyph-name="h" unicode="h" horiz-adv-x="1230" 
d="M96 0v1413h371v-479l119 117h358l197 -197v-854h-371v723l-51 51h-162l-90 -90v-684h-371z" />
    <glyph glyph-name="i" unicode="i" horiz-adv-x="589" 
d="M481 0h-372v1051h372v-1051zM109 1149v264h372v-264h-372z" />
    <glyph glyph-name="j" unicode="j" horiz-adv-x="585" 
d="M-115 -360v264h203l18 16v1131h371v-1225l-186 -186h-406zM106 1149v264h371v-264h-371z" />
    <glyph glyph-name="k" unicode="k" horiz-adv-x="1232" 
d="M809 0l-184 414l-158 -209v-205h-371v1413h371v-825l309 463h408l-299 -396l327 -655h-403z" />
    <glyph glyph-name="l" unicode="l" horiz-adv-x="589" 
d="M481 0h-372v1413h372v-1413z" />
    <glyph glyph-name="m" unicode="m" horiz-adv-x="1880" 
d="M96 0v1051h283l18 -144l144 144h391l129 -129l129 129h403l197 -197v-854h-371v723l-51 51h-149l-91 -90v-684h-370v723l-51 51h-150l-90 -90v-684h-371z" />
    <glyph glyph-name="n" unicode="n" horiz-adv-x="1230" 
d="M96 0v1051h283l18 -144l144 144h403l197 -197v-854h-371v723l-51 51h-162l-90 -90v-684h-371z" />
    <glyph glyph-name="o" unicode="o" horiz-adv-x="1234" 
d="M276 0l-196 199v655l196 197h682l199 -197v-655l-199 -199h-682zM502 227h231l51 52v495l-51 49h-231l-51 -49v-495z" />
    <glyph glyph-name="p" unicode="p" horiz-adv-x="1255" 
d="M96 -360v1411h283l16 -138l137 138h447l199 -197v-655l-199 -199h-420l-92 92v-452h-371zM547 242h207l51 51v473l-51 51h-201l-86 -86v-409z" />
    <glyph glyph-name="q" unicode="q" horiz-adv-x="1255" 
d="M788 -360v466l-104 -106h-408l-196 199v655l196 197h447l137 -138l19 138h282v-1411h-373zM502 242h192l94 94v395l-86 86h-200l-51 -51v-473z" />
    <glyph glyph-name="r" unicode="r" horiz-adv-x="847" 
d="M96 0v1051h283l18 -144l144 144h262v-308h-252l-84 -84v-659h-371z" />
    <glyph glyph-name="s" unicode="s" horiz-adv-x="1157" 
d="M233 0l-170 170v133h367v-61l16 -19h259l18 19v145l-18 19h-486l-147 147v315l182 183h659l170 -170v-131h-366v61l-19 16h-237l-17 -16v-145l17 -17h485l148 -147v-320l-183 -182h-678z" />
    <glyph glyph-name="t" unicode="t" horiz-adv-x="901" 
d="M371 0l-199 199v594h-145v258h145v258h373v-258h291v-258h-291v-476l41 -43h250v-274h-465z" />
    <glyph glyph-name="u" unicode="u" horiz-adv-x="1230" 
d="M287 0l-197 199v852h371v-723l51 -52h162l90 91v684h371v-1051h-283l-18 143l-144 -143h-403z" />
    <glyph glyph-name="v" unicode="v" horiz-adv-x="1134" 
d="M317 0l-317 1051h391l189 -820l190 820h365l-318 -1051h-500z" />
    <glyph glyph-name="w" unicode="w" horiz-adv-x="1742" 
d="M203 0l-189 1051h361l117 -811l157 811h498l162 -811l116 811h304l-189 -1051h-508l-153 813l-162 -813h-514z" />
    <glyph glyph-name="x" unicode="x" horiz-adv-x="1179" 
d="M750 0l-168 360l-179 -360h-389l314 528l-297 523h424l149 -357l166 357h377l-293 -500l309 -551h-413z" />
    <glyph glyph-name="y" unicode="y" horiz-adv-x="1136" 
d="M317 0l-317 1051h391l195 -775l184 775h367l-379 -1256l-156 -155h-514v262h393l27 98h-191z" />
    <glyph glyph-name="z" unicode="z" horiz-adv-x="1017" 
d="M45 0v205l467 581h-453v265h902v-205l-465 -580h477v-266h-928z" />
    <glyph glyph-name="braceleft" unicode="{" horiz-adv-x="765" 
d="M342 -145l-219 219v448l-37 39h-115v316h115l37 38v422l219 219h373v-286h-140l-69 -70v-342l-137 -137l137 -137v-373l69 -70h140v-286h-373z" />
    <glyph glyph-name="bar" unicode="|" horiz-adv-x="673" 
d="M160 -147v1706h354v-1706h-354z" />
    <glyph glyph-name="braceright" unicode="}" horiz-adv-x="765" 
d="M643 74l-219 -219h-373v286h139l70 70v373l137 137l-137 137v342l-70 70h-139v286h373l219 -219v-422l37 -38h115v-316h-115l-37 -39v-448z" />
    <glyph glyph-name="asciitilde" unicode="~" horiz-adv-x="948" 
d="M27 1018v256l141 139h276l170 -170h37l17 19v151h254v-256l-142 -139h-276l-170 168h-37l-16 -17v-151h-254z" />
    <glyph glyph-name="exclamdown" unicode="&#xa1;" horiz-adv-x="638" 
d="M514 1006v-1006h-389v1006h389zM514 1413v-291h-389v291h389z" />
    <glyph glyph-name="cent" unicode="&#xa2;" horiz-adv-x="1351" 
d="M303 145l-217 217v689l217 219h205v182h358v-182h205l217 -219v-236h-389v113l-57 57h-310l-57 -57v-449l57 -57h310l57 57v121h389v-238l-217 -217h-205v-184h-358v184h-205z" />
    <glyph glyph-name="sterling" unicode="&#xa3;" horiz-adv-x="1339" 
d="M61 0v279l101 100v164h-103v284h103v369l217 217h696l217 -217v-268h-389v145l-55 55h-236l-63 -61v-240h436v-284h-436v-154l-82 -84h825v-305h-1231z" />
    <glyph glyph-name="yen" unicode="&#xa5;" horiz-adv-x="1288" 
d="M96 467v180h254l-342 766h428l223 -608l238 608h385l-344 -766h254v-180h-334l-20 -45v-27h354v-180h-354v-215h-387v215h-355v180h355v27l-21 45h-334z" />
    <glyph glyph-name="section" unicode="&#xa7;" horiz-adv-x="1349" 
d="M281 -254l-199 201v217h389v-92l45 -45h320l43 41v198h-662l-127 127v123h1178v-563l-207 -207h-780zM88 643v565l207 205h774l195 -192v-220h-390v89l-45 45h-309l-43 -43v-199h664l127 -127v-123h-1180z" />
    <glyph glyph-name="dieresis" unicode="&#xa8;" horiz-adv-x="925" 
d="M528 1159v223h265v-223h-265zM133 1159v223h266v-223h-266z" />
    <glyph glyph-name="copyright" unicode="&#xa9;" horiz-adv-x="1759" 
d="M594 332l-119 119v514l119 118h569l119 -118v-168h-274v82l-23 22h-211l-26 -24v-336l26 -25h213l23 21v84h272v-170l-119 -119h-569zM352 0l-260 260v893l260 260h1053l262 -260v-893l-262 -260h-1053zM471 203h815l131 133v741l-131 133h-815l-131 -133v-741z" />
    <glyph glyph-name="ordfeminine" unicode="&#xaa;" horiz-adv-x="808" 
d="M176 702l-127 127v191l127 127h342v76l-22 22h-164l-15 -14v-14h-249v81l114 115h451l127 -127v-584h-189l-16 89l-88 -89h-291zM313 868h172l33 33v100h-205l-22 -22v-86z" />
    <glyph glyph-name="guillemotleft" unicode="&#xab;" horiz-adv-x="970" 
d="M229 272l-215 433l215 434h291l-215 -434l215 -433h-291zM641 272l-217 433l217 434h291l-217 -434l217 -433h-291z" />
    <glyph glyph-name="registered" unicode="&#xae;" horiz-adv-x="866" 
d="M260 768v449h281l71 -72v-139l-55 -56l68 -182h-113l-53 154h-90v-154h-109zM176 569l-135 136v573l135 135h514l135 -135v-573l-135 -136h-514zM219 670h430l70 69v504l-70 70h-430l-69 -70v-504zM369 1008h114l19 18v82l-19 18h-114v-118z" />
    <glyph glyph-name="macron" unicode="&#xaf;" horiz-adv-x="798" 
d="M133 1163v207h533v-207h-533z" />
    <glyph glyph-name="degree" unicode="&#xb0;" horiz-adv-x="686" 
d="M158 842l-111 110v351l111 110h372l109 -110v-351l-109 -110h-372zM262 999h162l25 25v207l-25 26h-162l-26 -26v-207z" />
    <glyph glyph-name="twosuperior" unicode="&#xb2;" horiz-adv-x="854" 
d="M61 637v340l113 115h344l12 14v108l-14 17h-170l-20 -19v-51h-263v129l123 123h484l123 -123v-262l-113 -113h-342l-14 -14v-74h469v-190h-732z" />
    <glyph glyph-name="threesuperior" unicode="&#xb3;" horiz-adv-x="847" 
d="M164 637l-123 123v119h262v-48l19 -16h192l18 16v95l-18 18h-305v170h303l18 19v88l-18 16h-190l-17 -16v-43h-264v112l123 123h506l123 -123v-166l-95 -94l97 -96v-174l-123 -123h-508z" />
    <glyph glyph-name="acute" unicode="&#xb4;" horiz-adv-x="632" 
d="M133 1122v135l162 162h205v-135l-162 -162h-205z" />
    <glyph glyph-name="paragraph" unicode="&#xb6;" horiz-adv-x="1857" 
d="M498 457h319v686h-319l-56 -58v-571zM1358 1143h-152v-1397h-389v440h-547l-217 220v790l217 217h1475v-1667h-387v1397z" />
    <glyph glyph-name="periodcentered" unicode="&#xb7;" horiz-adv-x="516" 
d="M86 569v355h346v-355h-346z" />
    <glyph glyph-name="cedilla" unicode="&#xb8;" horiz-adv-x="694" 
d="M133 -371v121h225l7 6v60l-7 6h-116l-43 43v135h168v-82h120l74 -74v-141l-74 -74h-354z" />
    <glyph glyph-name="onesuperior" unicode="&#xb9;" horiz-adv-x="702" 
d="M47 637v201h184v374h-180v201h443v-575h184v-201h-631z" />
    <glyph glyph-name="ordmasculine" unicode="&#xba;" horiz-adv-x="808" 
d="M176 702l-127 127v457l127 127h457l127 -127v-457l-127 -127h-457zM328 881h153l33 34v285l-33 33h-153l-35 -33v-285z" />
    <glyph glyph-name="guillemotright" unicode="&#xbb;" horiz-adv-x="970" 
d="M958 705l-217 -433h-290l215 433l-215 434h290zM547 705l-215 -433h-293l217 433l-217 434h293z" />
    <glyph glyph-name="onequarter" unicode="&#xbc;" horiz-adv-x="1943" 
d="M47 637v201h184v374h-180v201h443v-575h184v-201h-631zM389 0l856 1413h254l-856 -1413h-254zM1575 0v172h-479v143l153 461h244l-117 -414h199v414h258v-414h74v-190h-74v-172h-258z" />
    <glyph glyph-name="onehalf" unicode="&#xbd;" horiz-adv-x="1935" 
d="M47 637v201h184v374h-180v201h443v-575h184v-201h-631zM389 0l856 1413h254l-856 -1413h-254zM1143 0v340l112 115h344l13 14v109l-15 16h-170l-20 -19v-51h-262v129l123 123h483l123 -123v-262l-113 -112h-342l-14 -15v-74h469v-190h-731z" />
    <glyph glyph-name="threequarters" unicode="&#xbe;" horiz-adv-x="2011" 
d="M164 637l-123 123v119h262v-48l19 -16h192l18 16v95l-18 18h-305v170h303l18 19v88l-18 16h-190l-17 -16v-43h-264v112l123 123h506l123 -123v-166l-95 -94l97 -96v-174l-123 -123h-508zM459 0l856 1413h254l-856 -1413h-254zM1645 0v172h-480v143l154 461h244l-117 -414
h199v414h258v-414h73v-190h-73v-172h-258z" />
    <glyph glyph-name="questiondown" unicode="&#xbf;" horiz-adv-x="1245" 
d="M899 1008v-297l-160 -160h-270l-35 -33v-188l51 -51h301l45 45v122h390v-247l-199 -199h-770l-205 205v475l174 174h256l33 35v119h389zM899 1413v-291h-389v291h389z" />
    <glyph glyph-name="Agrave" unicode="&#xc0;" horiz-adv-x="1347" 
d="M8 0l371 1413h579l373 -1413h-403l-64 276h-424l-63 -276h-369zM655 1190l-147 -627h291zM602 1509l-162 162v135h205l162 -161v-136h-205z" />
    <glyph glyph-name="Aacute" unicode="&#xc1;" horiz-adv-x="1347" 
d="M8 0l371 1413h579l373 -1413h-403l-64 276h-424l-63 -276h-369zM655 1190l-147 -627h291zM537 1509v136l161 161h205v-135l-162 -162h-204z" />
    <glyph glyph-name="Acircumflex" unicode="&#xc2;" horiz-adv-x="1347" 
d="M8 0l371 1413h579l373 -1413h-403l-64 276h-424l-63 -276h-369zM655 1190l-147 -627h291zM358 1513v125l156 156h315l154 -156v-125h-176l-131 132h-8l-131 -132h-179z" />
    <glyph glyph-name="Atilde" unicode="&#xc3;" horiz-adv-x="1347" 
d="M8 0l371 1413h579l373 -1413h-403l-64 276h-424l-63 -276h-369zM655 1190l-147 -627h291zM352 1520v174l94 94h216l106 -107h25l12 15v92h188v-174l-94 -94h-217l-107 106h-22l-14 -12v-94h-187z" />
    <glyph glyph-name="Adieresis" unicode="&#xc4;" horiz-adv-x="1347" 
d="M8 0l371 1413h579l373 -1413h-403l-64 276h-424l-63 -276h-369zM655 1190l-147 -627h291zM737 1546v223h264v-223h-264zM342 1546v223h266v-223h-266z" />
    <glyph glyph-name="Aring" unicode="&#xc5;" horiz-adv-x="1347" 
d="M8 0l371 1413h579l373 -1413h-403l-64 276h-424l-63 -276h-369zM655 1190l-147 -627h291zM526 1495l-82 82v182l82 82h291l82 -82v-182l-82 -82h-291zM608 1599h127l19 19v98l-19 21h-127l-20 -21v-98z" />
    <glyph glyph-name="AE" unicode="&#xc6;" horiz-adv-x="1861" 
d="M8 0l371 1413h1397v-293h-746l66 -258h620v-284h-547l74 -285h537v-293h-852l-64 276h-424l-63 -276h-369zM655 1190l-147 -627h291z" />
    <glyph glyph-name="Ccedilla" unicode="&#xc7;" horiz-adv-x="1355" 
d="M309 0l-217 217v979l217 217h760l219 -217v-297h-389v166l-63 63h-285l-70 -69v-713l70 -67h285l63 61v178h389v-301l-219 -217h-295v-82h121l74 -74v-141l-74 -74h-354v121h225l6 6v60l-6 6h-117l-43 43v135h-297z" />
    <glyph glyph-name="Egrave" unicode="&#xc8;" horiz-adv-x="1191" 
d="M113 0v1413h993v-293h-606v-254h547v-293h-547v-280h610v-293h-997zM541 1509l-162 162v135h205l161 -161v-136h-204z" />
    <glyph glyph-name="Eacute" unicode="&#xc9;" horiz-adv-x="1191" 
d="M113 0v1413h993v-293h-606v-254h547v-293h-547v-280h610v-293h-997zM475 1509v136l162 161h205v-135l-162 -162h-205z" />
    <glyph glyph-name="Ecircumflex" unicode="&#xca;" horiz-adv-x="1191" 
d="M297 1513v125l156 156h315l154 -156v-125h-177l-131 132h-8l-131 -132h-178zM113 0v1413h993v-293h-606v-254h547v-293h-547v-280h610v-293h-997z" />
    <glyph glyph-name="Edieresis" unicode="&#xcb;" horiz-adv-x="1191" 
d="M676 1546v223h264v-223h-264zM281 1546v223h266v-223h-266zM113 0v1413h993v-293h-606v-254h547v-293h-547v-280h610v-293h-997z" />
    <glyph glyph-name="Igrave" unicode="&#xcc;" horiz-adv-x="989" 
d="M66 0v268h233v879h-233v266h858v-266h-236v-879h236v-268h-858zM424 1509l-162 162v135h205l162 -161v-136h-205z" />
    <glyph glyph-name="Iacute" unicode="&#xcd;" horiz-adv-x="989" 
d="M66 0v268h233v879h-233v266h858v-266h-236v-879h236v-268h-858zM358 1509v136l162 161h205v-135l-162 -162h-205z" />
    <glyph glyph-name="Icircumflex" unicode="&#xce;" horiz-adv-x="989" 
d="M66 0v268h233v879h-233v266h858v-266h-236v-879h236v-268h-858zM180 1513v125l156 156h315l154 -156v-125h-176l-131 132h-9l-131 -132h-178z" />
    <glyph glyph-name="Idieresis" unicode="&#xcf;" horiz-adv-x="989" 
d="M66 0v268h233v879h-233v266h858v-266h-236v-879h236v-268h-858zM559 1546v223h264v-223h-264zM164 1546v223h266v-223h-266z" />
    <glyph glyph-name="Eth" unicode="&#xd0;" horiz-adv-x="1423" 
d="M39 553v301h98v559h977l217 -217v-979l-217 -217h-977v553h-98zM526 285h348l68 69v705l-68 69h-348v-274h181v-301h-181v-268z" />
    <glyph glyph-name="Ntilde" unicode="&#xd1;" horiz-adv-x="1402" 
d="M113 0v1413h393l450 -829v829h344v-1413h-397l-446 842v-842h-344zM381 1520v174l94 94h215l107 -107h24l13 15v92h188v-174l-94 -94h-217l-107 106h-22l-15 -12v-94h-186z" />
    <glyph glyph-name="Ograve" unicode="&#xd2;" horiz-adv-x="1394" 
d="M309 0l-217 217v979l217 217h774l220 -217v-979l-220 -217h-774zM551 285h293l69 69v705l-69 69h-293l-70 -69v-705zM627 1509l-162 162v135h205l161 -161v-136h-204z" />
    <glyph glyph-name="Oacute" unicode="&#xd3;" horiz-adv-x="1394" 
d="M559 1509v136l162 161h205v-135l-162 -162h-205zM309 0l-217 217v979l217 217h774l220 -217v-979l-220 -217h-774zM551 285h293l69 69v705l-69 69h-293l-70 -69v-705z" />
    <glyph glyph-name="Ocircumflex" unicode="&#xd4;" horiz-adv-x="1394" 
d="M383 1513v125l156 156h315l154 -156v-125h-177l-131 132h-8l-131 -132h-178zM309 0l-217 217v979l217 217h774l220 -217v-979l-220 -217h-774zM551 285h293l69 69v705l-69 69h-293l-70 -69v-705z" />
    <glyph glyph-name="Otilde" unicode="&#xd5;" horiz-adv-x="1394" 
d="M309 0l-217 217v979l217 217h774l220 -217v-979l-220 -217h-774zM551 285h293l69 69v705l-69 69h-293l-70 -69v-705zM377 1520v174l94 94h215l107 -107h24l12 15v92h189v-174l-94 -94h-217l-107 106h-22l-15 -12v-94h-186z" />
    <glyph glyph-name="Odieresis" unicode="&#xd6;" horiz-adv-x="1394" 
d="M762 1546v223h264v-223h-264zM367 1546v223h266v-223h-266zM309 0l-217 217v979l217 217h774l220 -217v-979l-220 -217h-774zM551 285h293l69 69v705l-69 69h-293l-70 -69v-705z" />
    <glyph glyph-name="multiply" unicode="&#xd7;" horiz-adv-x="870" 
d="M227 297l-200 201l206 207l-206 208l200 201l207 -209l209 209l201 -201l-209 -208l209 -207l-201 -201l-209 207z" />
    <glyph glyph-name="Oslash" unicode="&#xd8;" horiz-adv-x="1394" 
d="M309 0l-217 217v979l217 217h774l220 -217v-979l-220 -217h-774zM463 367l371 776h-302l-69 -70v-706zM860 270l70 70v707l-363 -777h293z" />
    <glyph glyph-name="Ugrave" unicode="&#xd9;" horiz-adv-x="1382" 
d="M319 0l-219 217v1196h389v-1048l70 -70h264l70 70v1048h389v-1196l-217 -217h-746zM621 1509l-162 162v135h205l161 -161v-136h-204z" />
    <glyph glyph-name="Uacute" unicode="&#xda;" horiz-adv-x="1382" 
d="M555 1509v136l162 161h205v-135l-162 -162h-205zM319 0l-219 217v1196h389v-1048l70 -70h264l70 70v1048h389v-1196l-217 -217h-746z" />
    <glyph glyph-name="Ucircumflex" unicode="&#xdb;" horiz-adv-x="1382" 
d="M377 1513v125l155 156h316l153 -156v-125h-176l-131 132h-8l-131 -132h-178zM319 0l-219 217v1196h389v-1048l70 -70h264l70 70v1048h389v-1196l-217 -217h-746z" />
    <glyph glyph-name="Udieresis" unicode="&#xdc;" horiz-adv-x="1382" 
d="M756 1546v223h264v-223h-264zM360 1546v223h267v-223h-267zM319 0l-219 217v1196h389v-1048l70 -70h264l70 70v1048h389v-1196l-217 -217h-746z" />
    <glyph glyph-name="Yacute" unicode="&#xdd;" horiz-adv-x="1288" 
d="M451 0v416l-443 997h422l229 -618l244 618h379l-444 -997v-416h-387zM508 1509v136l162 161h204v-135l-161 -162h-205z" />
    <glyph glyph-name="Thorn" unicode="&#xde;" horiz-adv-x="1363" 
d="M113 0v1413h387v-219h598l219 -217v-504l-219 -219h-598v-254h-387zM500 524h383l43 45v310l-43 45h-383v-400z" />
    <glyph glyph-name="germandbls" unicode="&#xdf;" horiz-adv-x="1325" 
d="M96 0v1217l197 196h764l196 -196v-349l-137 -137l141 -141v-391l-198 -199h-500v231h281l45 45v306l-31 30h-295v232h293l31 30v263l-45 45h-326l-45 -45v-1137h-371z" />
    <glyph glyph-name="agrave" unicode="&#xe0;" horiz-adv-x="1220" 
d="M242 0l-176 176v283l176 176h520v160l-35 34h-231l-19 -16v-72h-381v138l172 172h666l196 -197v-854h-282l-17 137l-139 -137h-450zM469 231h221l72 72v148h-293l-29 -29v-162zM528 1122l-161 162v135h204l162 -162v-135h-205z" />
    <glyph glyph-name="aacute" unicode="&#xe1;" horiz-adv-x="1220" 
d="M242 0l-176 176v283l176 176h520v160l-35 34h-231l-19 -16v-72h-381v138l172 172h666l196 -197v-854h-282l-17 137l-139 -137h-450zM461 1122v135l162 162h204v-135l-161 -162h-205zM469 231h221l72 72v148h-293l-29 -29v-162z" />
    <glyph glyph-name="acircumflex" unicode="&#xe2;" horiz-adv-x="1220" 
d="M242 0l-176 176v283l176 176h520v160l-35 34h-231l-19 -16v-72h-381v138l172 172h666l196 -197v-854h-282l-17 137l-139 -137h-450zM469 231h221l72 72v148h-293l-29 -29v-162zM285 1126v125l155 156h316l153 -156v-125h-176l-131 131h-8l-131 -131h-178z" />
    <glyph glyph-name="atilde" unicode="&#xe3;" horiz-adv-x="1220" 
d="M242 0l-176 176v283l176 176h520v160l-35 34h-231l-19 -16v-72h-381v138l172 172h666l196 -197v-854h-282l-17 137l-139 -137h-450zM469 231h221l72 72v148h-293l-29 -29v-162zM276 1133v174l95 94h215l106 -107h25l12 15v92h189v-174l-95 -94h-217l-106 106h-23l-14 -12
v-94h-187z" />
    <glyph glyph-name="adieresis" unicode="&#xe4;" horiz-adv-x="1220" 
d="M242 0l-176 176v283l176 176h520v160l-35 34h-231l-19 -16v-72h-381v138l172 172h666l196 -197v-854h-282l-17 137l-139 -137h-450zM469 231h221l72 72v148h-293l-29 -29v-162zM664 1159v223h264v-223h-264zM268 1159v223h267v-223h-267z" />
    <glyph glyph-name="aring" unicode="&#xe5;" horiz-adv-x="1220" 
d="M242 0l-176 176v283l176 176h520v160l-35 34h-231l-19 -16v-72h-381v138l172 172h666l196 -197v-854h-282l-17 137l-139 -137h-450zM469 231h221l72 72v148h-293l-29 -29v-162zM453 1108l-82 82v182l82 82h290l82 -82v-182l-82 -82h-290zM535 1212h127l18 19v98l-18 21
h-127l-21 -21v-98z" />
    <glyph glyph-name="ae" unicode="&#xe6;" horiz-adv-x="1886" 
d="M242 0l-176 176v281l178 178h512v160l-35 34h-225l-19 -16v-72h-381v138l172 172h578l92 -90l90 90h580l198 -197v-405h-690v-187l37 -37h266l19 19v78h368v-154l-168 -168h-610l-90 92l-92 -92h-604zM463 231h221l72 72v146h-295l-27 -27v-162zM1116 635h334v156l-39 36
h-256l-39 -36v-156z" />
    <glyph glyph-name="ccedilla" unicode="&#xe7;" horiz-adv-x="1183" 
d="M276 0l-196 199v655l196 197h672l182 -183v-206h-380v118l-41 41h-207l-51 -51v-489l51 -52h207l41 41v119h380v-207l-182 -182h-260v-82h121l74 -74v-141l-74 -74h-354v121h225l6 6v60l-6 6h-117l-43 43v135h-244z" />
    <glyph glyph-name="egrave" unicode="&#xe8;" horiz-adv-x="1208" 
d="M276 0l-196 199v655l196 197h656l196 -197v-410h-690v-176l43 -43h262l17 19v78h368v-154l-165 -168h-687zM438 639h334v152l-39 36h-256l-39 -36v-152zM535 1122l-162 162v135h205l161 -162v-135h-204z" />
    <glyph glyph-name="eacute" unicode="&#xe9;" horiz-adv-x="1208" 
d="M276 0l-196 199v655l196 197h656l196 -197v-410h-690v-176l43 -43h262l17 19v78h368v-154l-165 -168h-687zM469 1122v135l162 162h205v-135l-162 -162h-205zM438 639h334v152l-39 36h-256l-39 -36v-152z" />
    <glyph glyph-name="ecircumflex" unicode="&#xea;" horiz-adv-x="1208" 
d="M291 1126v125l155 156h316l153 -156v-125h-176l-131 131h-8l-131 -131h-178zM276 0l-196 199v655l196 197h656l196 -197v-410h-690v-176l43 -43h262l17 19v78h368v-154l-165 -168h-687zM438 639h334v152l-39 36h-256l-39 -36v-152z" />
    <glyph glyph-name="edieresis" unicode="&#xeb;" horiz-adv-x="1208" 
d="M670 1159v223h264v-223h-264zM274 1159v223h267v-223h-267zM276 0l-196 199v655l196 197h656l196 -197v-410h-690v-176l43 -43h262l17 19v78h368v-154l-165 -168h-687zM438 639h334v152l-39 36h-256l-39 -36v-152z" />
    <glyph glyph-name="igrave" unicode="&#xec;" horiz-adv-x="589" 
d="M481 0h-372v1051h372v-1051zM225 1122l-162 162v135h205l162 -162v-135h-205z" />
    <glyph glyph-name="iacute" unicode="&#xed;" horiz-adv-x="589" 
d="M481 0h-372v1051h372v-1051zM158 1122v135l161 162h205v-135l-162 -162h-204z" />
    <glyph glyph-name="icircumflex" unicode="&#xee;" horiz-adv-x="589" 
d="M-18 1126v125l155 156h316l153 -156v-125h-176l-131 131h-8l-131 -131h-178zM481 0h-372v1051h372v-1051z" />
    <glyph glyph-name="idieresis" unicode="&#xef;" horiz-adv-x="589" 
d="M360 1159v223h265v-223h-265zM-35 1159v223h266v-223h-266zM481 0h-372v1051h372v-1051z" />
    <glyph glyph-name="eth" unicode="&#xf0;" horiz-adv-x="1243" 
d="M276 0l-196 199v655l196 197h396l116 -117v158l-247 247v74h348l215 -215l121 119h59v-246l-123 -125v-747l-198 -199h-687zM502 227h235l51 52v432l-100 98h-186l-51 -49v-481z" />
    <glyph glyph-name="ntilde" unicode="&#xf1;" horiz-adv-x="1230" 
d="M96 0v1051h283l18 -144l144 144h403l197 -197v-854h-371v723l-51 51h-162l-90 -90v-684h-371zM315 1133v174l95 94h215l106 -107h25l12 15v92h188v-174l-94 -94h-217l-106 106h-23l-14 -12v-94h-187z" />
    <glyph glyph-name="ograve" unicode="&#xf2;" horiz-adv-x="1234" 
d="M276 0l-196 199v655l196 197h682l199 -197v-655l-199 -199h-682zM502 227h231l51 52v495l-51 49h-231l-51 -49v-495zM547 1122l-162 162v135h205l162 -162v-135h-205z" />
    <glyph glyph-name="oacute" unicode="&#xf3;" horiz-adv-x="1234" 
d="M276 0l-196 199v655l196 197h682l199 -197v-655l-199 -199h-682zM502 227h231l51 52v495l-51 49h-231l-51 -49v-495zM481 1122v135l162 162h205v-135l-162 -162h-205z" />
    <glyph glyph-name="ocircumflex" unicode="&#xf4;" horiz-adv-x="1234" 
d="M303 1126v125l156 156h315l154 -156v-125h-176l-131 131h-9l-131 -131h-178zM276 0l-196 199v655l196 197h682l199 -197v-655l-199 -199h-682zM502 227h231l51 52v495l-51 49h-231l-51 -49v-495z" />
    <glyph glyph-name="otilde" unicode="&#xf5;" horiz-adv-x="1234" 
d="M276 0l-196 199v655l196 197h682l199 -197v-655l-199 -199h-682zM502 227h231l51 52v495l-51 49h-231l-51 -49v-495zM297 1133v174l94 94h215l107 -107h24l13 15v92h188v-174l-94 -94h-217l-107 106h-22l-15 -12v-94h-186z" />
    <glyph glyph-name="odieresis" unicode="&#xf6;" horiz-adv-x="1234" 
d="M682 1159v223h264v-223h-264zM287 1159v223h266v-223h-266zM276 0l-196 199v655l196 197h682l199 -197v-655l-199 -199h-682zM502 227h231l51 52v495l-51 49h-231l-51 -49v-495z" />
    <glyph glyph-name="divide" unicode="&#xf7;" horiz-adv-x="811" 
d="M270 250v235h271v-235h-271zM27 561v287h757v-287h-757zM270 924v233h271v-233h-271z" />
    <glyph glyph-name="oslash" unicode="&#xf8;" horiz-adv-x="1234" 
d="M276 0l-196 199v655l196 197h682l199 -197v-655l-199 -199h-682zM436 365l289 469h-231l-58 -58v-411zM741 217l58 57v404l-287 -461h229z" />
    <glyph glyph-name="ugrave" unicode="&#xf9;" horiz-adv-x="1230" 
d="M287 0l-197 199v852h371v-723l51 -52h162l90 91v684h371v-1051h-283l-18 143l-144 -143h-403zM543 1122l-162 162v135h205l162 -162v-135h-205z" />
    <glyph glyph-name="uacute" unicode="&#xfa;" horiz-adv-x="1230" 
d="M287 0l-197 199v852h371v-723l51 -52h162l90 91v684h371v-1051h-283l-18 143l-144 -143h-403zM475 1122v135l162 162h205v-135l-162 -162h-205z" />
    <glyph glyph-name="ucircumflex" unicode="&#xfb;" horiz-adv-x="1230" 
d="M299 1126v125l156 156h315l154 -156v-125h-176l-132 131h-8l-131 -131h-178zM287 0l-197 199v852h371v-723l51 -52h162l90 91v684h371v-1051h-283l-18 143l-144 -143h-403z" />
    <glyph glyph-name="udieresis" unicode="&#xfc;" horiz-adv-x="1230" 
d="M678 1159v223h264v-223h-264zM283 1159v223h266v-223h-266zM287 0l-197 199v852h371v-723l51 -52h162l90 91v684h371v-1051h-283l-18 143l-144 -143h-403z" />
    <glyph glyph-name="yacute" unicode="&#xfd;" horiz-adv-x="1136" 
d="M317 0l-317 1051h391l195 -775l184 775h367l-379 -1256l-156 -155h-514v262h393l27 98h-191zM430 1122v135l162 162h205v-135l-162 -162h-205z" />
    <glyph glyph-name="thorn" unicode="&#xfe;" horiz-adv-x="1255" 
d="M96 -360v1773h371v-479l119 117h393l199 -197v-655l-199 -199h-420l-92 92v-452h-371zM547 242h207l51 51v473l-51 51h-195l-92 -92v-403z" />
    <glyph glyph-name="ydieresis" unicode="&#xff;" horiz-adv-x="1136" 
d="M317 0l-317 1051h391l195 -775l184 775h367l-379 -1256l-156 -155h-514v262h393l27 98h-191zM633 1159v223h264v-223h-264zM238 1159v223h266v-223h-266z" />
    <glyph glyph-name="Amacron" unicode="&#x100;" horiz-adv-x="1347" 
d="M8 0l371 1413h579l373 -1413h-403l-64 276h-424l-63 -276h-369zM655 1190l-147 -627h291zM408 1550v207h532v-207h-532z" />
    <glyph glyph-name="amacron" unicode="&#x101;" horiz-adv-x="1220" 
d="M242 0l-176 176v283l176 176h520v160l-35 34h-231l-19 -16v-72h-381v138l172 172h666l196 -197v-854h-282l-17 137l-139 -137h-450zM469 231h221l72 72v148h-293l-29 -29v-162zM332 1163v207h532v-207h-532z" />
    <glyph glyph-name="Abreve" unicode="&#x102;" horiz-adv-x="1347" 
d="M8 0l371 1413h579l373 -1413h-403l-64 276h-424l-63 -276h-369zM655 1190l-147 -627h291zM455 1520l-97 96v164h224v-88l18 -19h143l19 19v88h223v-164l-98 -96h-432z" />
    <glyph glyph-name="abreve" unicode="&#x103;" horiz-adv-x="1220" 
d="M242 0l-176 176v283l176 176h520v160l-35 34h-231l-19 -16v-72h-381v138l172 172h666l196 -197v-854h-282l-17 137l-139 -137h-450zM469 231h221l72 72v148h-293l-29 -29v-162zM381 1133l-96 96v164h223v-88l18 -19h144l18 19v88h223v-164l-98 -96h-432z" />
    <glyph glyph-name="Aogonek" unicode="&#x104;" horiz-adv-x="1337" 
d="M8 0l371 1413h579l373 -1413h-184l-158 -160v-73l6 -7h152v-131h-287l-74 74v160l140 141l-62 272h-424l-63 -276h-369zM655 1190l-147 -627h291z" />
    <glyph glyph-name="aogonek" unicode="&#x105;" horiz-adv-x="1220" 
d="M242 0l-176 176v283l176 176h520v160l-35 34h-231l-19 -16v-72h-381v138l172 172h666l196 -197v-854h-57l-158 -160v-73l5 -7h153v-131h-287l-73 74v160l135 137l-17 137l-139 -137h-450zM469 231h221l72 72v148h-293l-29 -29v-162z" />
    <glyph glyph-name="Cacute" unicode="&#x106;" horiz-adv-x="1355" 
d="M553 1509v136l162 161h205v-135l-162 -162h-205zM309 0l-217 217v979l217 217h760l219 -217v-297h-389v166l-63 63h-285l-70 -69v-713l70 -67h285l63 61v178h389v-301l-219 -217h-760z" />
    <glyph glyph-name="cacute" unicode="&#x107;" horiz-adv-x="1183" 
d="M467 1122v135l162 162h205v-135l-162 -162h-205zM276 0l-196 199v655l196 197h672l182 -183v-206h-380v118l-41 41h-207l-51 -51v-489l51 -52h207l41 41v119h380v-207l-182 -182h-672z" />
    <glyph glyph-name="Ccircumflex" unicode="&#x108;" horiz-adv-x="1355" 
d="M375 1513v125l155 156h316l153 -156v-125h-176l-131 132h-8l-131 -132h-178zM309 0l-217 217v979l217 217h760l219 -217v-297h-389v166l-63 63h-285l-70 -69v-713l70 -67h285l63 61v178h389v-301l-219 -217h-760z" />
    <glyph glyph-name="ccircumflex" unicode="&#x109;" horiz-adv-x="1183" 
d="M291 1126v125l155 156h316l153 -156v-125h-176l-131 131h-8l-131 -131h-178zM276 0l-196 199v655l196 197h672l182 -183v-206h-380v118l-41 41h-207l-51 -51v-489l51 -52h207l41 41v119h380v-207l-182 -182h-672z" />
    <glyph glyph-name="Ccaron" unicode="&#x10c;" horiz-adv-x="1355" 
d="M530 1513l-155 156v125h178l131 -131h8l131 131h176v-125l-153 -156h-316zM309 0l-217 217v979l217 217h760l219 -217v-297h-389v166l-63 63h-285l-70 -69v-713l70 -67h285l63 61v178h389v-301l-219 -217h-760z" />
    <glyph glyph-name="ccaron" unicode="&#x10d;" horiz-adv-x="1183" 
d="M446 1126l-155 156v125h178l131 -131h8l131 131h176v-125l-153 -156h-316zM276 0l-196 199v655l196 197h672l182 -183v-206h-380v118l-41 41h-207l-51 -51v-489l51 -52h207l41 41v119h380v-207l-182 -182h-672z" />
    <glyph glyph-name="Dcaron" unicode="&#x10e;" horiz-adv-x="1398" 
d="M504 1513l-156 156v125h178l131 -131h9l131 131h176v-125l-154 -156h-315zM113 0v1413h974l220 -217v-979l-220 -217h-974zM500 285h348l70 69v705l-70 69h-348v-843z" />
    <glyph glyph-name="dcaron" unicode="&#x10f;" horiz-adv-x="1255" 
d="M1239 1104v309h234v-211l-99 -98h-135zM276 0l-196 199v655l196 197h396l116 -117v479h373v-1413h-282l-19 137l-137 -137h-447zM502 233h200l86 86v383l-106 107h-180l-51 -49v-475z" />
    <glyph glyph-name="Dcroat" unicode="&#x110;" horiz-adv-x="1423" 
d="M39 553v301h98v559h977l217 -217v-979l-217 -217h-977v553h-98zM526 285h348l68 69v705l-68 69h-348v-274h181v-301h-181v-268z" />
    <glyph glyph-name="dcroat" unicode="&#x111;" horiz-adv-x="1255" 
d="M518 1130v191h270v92h373v-92h107v-191h-107v-1130h-282l-19 137l-137 -137h-447l-196 199v655l196 197h396l116 -117v196h-270zM502 233h200l86 86v383l-106 107h-180l-51 -49v-475z" />
    <glyph glyph-name="Emacron" unicode="&#x112;" horiz-adv-x="1191" 
d="M113 0v1413h993v-293h-606v-254h547v-293h-547v-280h610v-293h-997zM344 1550v207h533v-207h-533z" />
    <glyph glyph-name="emacron" unicode="&#x113;" horiz-adv-x="1208" 
d="M276 0l-196 199v655l196 197h656l196 -197v-410h-690v-176l43 -43h262l17 19v78h368v-154l-165 -168h-687zM438 639h334v152l-39 36h-256l-39 -36v-152zM340 1163v207h532v-207h-532z" />
    <glyph glyph-name="Edotaccent" unicode="&#x116;" horiz-adv-x="1191" 
d="M113 0v1413h993v-293h-606v-254h547v-293h-547v-280h610v-293h-997zM524 1516l-71 69v150l71 69h172l72 -69v-150l-72 -69h-172z" />
    <glyph glyph-name="edotaccent" unicode="&#x117;" horiz-adv-x="1208" 
d="M276 0l-196 199v655l196 197h656l196 -197v-410h-690v-176l43 -43h262l17 19v78h368v-154l-165 -168h-687zM438 639h334v152l-39 36h-256l-39 -36v-152zM518 1128l-72 70v150l72 69h172l72 -69v-150l-72 -70h-172z" />
    <glyph glyph-name="Eogonek" unicode="&#x118;" horiz-adv-x="1191" 
d="M113 0v1413h993v-293h-606v-254h547v-293h-547v-280h610v-293l-158 -160v-73l6 -7h152v-131h-287l-73 74v160l135 137h-772z" />
    <glyph glyph-name="eogonek" unicode="&#x119;" horiz-adv-x="1208" 
d="M276 0l-196 199v655l196 197h656l196 -197v-410h-690v-176l43 -43h262l17 19v78h368v-154l-165 -168l-160 -160v-73l6 -7h154v-131h-289l-74 74v160l137 137h-461zM438 639h334v152l-39 36h-256l-39 -36v-152z" />
    <glyph glyph-name="Ecaron" unicode="&#x11a;" horiz-adv-x="1191" 
d="M453 1513l-156 156v125h178l131 -131h8l131 131h177v-125l-154 -156h-315zM113 0v1413h993v-293h-606v-254h547v-293h-547v-280h610v-293h-997z" />
    <glyph glyph-name="ecaron" unicode="&#x11b;" horiz-adv-x="1208" 
d="M446 1126l-155 156v125h178l131 -131h8l131 131h176v-125l-153 -156h-316zM276 0l-196 199v655l196 197h656l196 -197v-410h-690v-176l43 -43h262l17 19v78h368v-154l-165 -168h-687zM438 639h334v152l-39 36h-256l-39 -36v-152z" />
    <glyph glyph-name="Gcircumflex" unicode="&#x11c;" horiz-adv-x="1388" 
d="M385 1513v125l156 156h315l154 -156v-125h-176l-132 132h-8l-131 -132h-178zM309 0l-217 217v979l217 217h793l205 -205v-245h-389v120l-44 45h-323l-70 -69v-719l70 -68h323l44 43v199h-287v283h676v-592l-205 -205h-793z" />
    <glyph glyph-name="gcircumflex" unicode="&#x11d;" horiz-adv-x="1249" 
d="M303 1126v125l156 156h315l154 -156v-125h-176l-131 131h-9l-131 -131h-178zM274 -360l-176 176v129h344v-54l25 -24h270l51 51v242l-116 -117h-396l-196 197v614l196 197h447l137 -138l19 138h282v-1215l-198 -196h-689zM502 276h180l106 107v348l-86 86h-200l-51 -51
v-440z" />
    <glyph glyph-name="Gbreve" unicode="&#x11e;" horiz-adv-x="1388" 
d="M309 0l-217 217v979l217 217h793l205 -205v-245h-389v120l-44 45h-323l-70 -69v-719l70 -68h323l44 43v199h-287v283h676v-592l-205 -205h-793zM481 1520l-96 96v164h223v-88l19 -19h143l18 19v88h224v-164l-99 -96h-432z" />
    <glyph glyph-name="gbreve" unicode="&#x11f;" horiz-adv-x="1249" 
d="M274 -360l-176 176v129h344v-54l25 -24h270l51 51v242l-116 -117h-396l-196 197v614l196 197h447l137 -138l19 138h282v-1215l-198 -196h-689zM502 276h180l106 107v348l-86 86h-200l-51 -51v-440zM399 1133l-96 96v164h223v-88l19 -19h143l19 19v88h223v-164l-99 -96
h-432z" />
    <glyph glyph-name="Gcommaaccent" unicode="&#x122;" horiz-adv-x="1388" 
d="M582 -371v310h233v-211l-98 -99h-135zM309 0l-217 217v979l217 217h793l205 -205v-245h-389v120l-44 45h-323l-70 -69v-719l70 -68h323l44 43v199h-287v283h676v-592l-205 -205h-793z" />
    <glyph glyph-name="gcommaaccent" unicode="&#x123;" horiz-adv-x="1249" 
d="M719 1432v-310h-234v211l99 99h135zM274 -360l-176 176v129h344v-54l25 -24h270l51 51v242l-116 -117h-396l-196 197v614l196 197h447l137 -138l19 138h282v-1215l-198 -196h-689zM502 276h180l106 107v348l-86 86h-200l-51 -51v-440z" />
    <glyph glyph-name="Hcircumflex" unicode="&#x124;" horiz-adv-x="1411" 
d="M393 1513v125l156 156h315l154 -156v-125h-176l-131 132h-9l-131 -132h-178zM113 0v1413h387v-557h411v557h389v-1413h-389v518h-411v-518h-387z" />
    <glyph glyph-name="hcircumflex" unicode="&#x125;" horiz-adv-x="1230" 
d="M-31 1464v125l156 156h315l154 -156v-125h-176l-131 131h-8l-132 -131h-178zM96 0v1413h371v-479l119 117h358l197 -197v-854h-371v723l-51 51h-162l-90 -90v-684h-371z" />
    <glyph glyph-name="Imacron" unicode="&#x12a;" horiz-adv-x="989" 
d="M66 0v268h233v879h-233v266h858v-266h-236v-879h236v-268h-858zM229 1550v207h533v-207h-533z" />
    <glyph glyph-name="imacron" unicode="&#x12b;" horiz-adv-x="589" 
d="M481 0h-372v1051h372v-1051zM31 1163v207h532v-207h-532z" />
    <glyph glyph-name="Iogonek" unicode="&#x12e;" horiz-adv-x="989" 
d="M66 0v268h233v879h-233v266h858v-266h-236v-879h236v-268h-312l-159 -160v-73l6 -7h153v-131h-288l-74 74v160l137 137h-321z" />
    <glyph glyph-name="iogonek" unicode="&#x12f;" horiz-adv-x="589" 
d="M481 0h-147l-158 -160v-73l4 -7h154v-131h-287l-76 74v160l138 137v1051h372v-1051zM109 1149v264h372v-264h-372z" />
    <glyph glyph-name="Idotaccent" unicode="&#x130;" horiz-adv-x="989" 
d="M66 0v268h233v879h-233v266h858v-266h-236v-879h236v-268h-858zM408 1516l-72 69v150l72 69h172l71 -69v-150l-71 -69h-172z" />
    <glyph glyph-name="dotlessi" unicode="&#x131;" horiz-adv-x="589" 
d="M481 0h-372v1051h372v-1051z" />
    <glyph glyph-name="Jcircumflex" unicode="&#x134;" horiz-adv-x="894" 
d="M281 1513v125l155 156h316l153 -156v-125h-176l-131 132h-8l-131 -132h-178zM45 0v299h291l70 68v1046h389v-1196l-220 -217h-530z" />
    <glyph glyph-name="jcircumflex" unicode="&#x135;" horiz-adv-x="585" 
d="M-23 1126v125l156 156h316l153 -156v-125h-176l-131 131h-8l-131 -131h-179zM-115 -360v264h203l18 16v1131h371v-1225l-186 -186h-406z" />
    <glyph glyph-name="Kcommaaccent" unicode="&#x136;" horiz-adv-x="1392" 
d="M621 -371v310h233v-211l-98 -99h-135zM932 0l-244 543l-188 -293v-250h-387v1413h387v-686l413 686h433l-379 -575l395 -838h-430z" />
    <glyph glyph-name="kcommaaccent" unicode="&#x137;" horiz-adv-x="1232" 
d="M537 -371v310h233v-211l-98 -99h-135zM809 0l-184 414l-158 -209v-205h-371v1413h371v-825l309 463h408l-299 -396l327 -655h-403z" />
    <glyph glyph-name="Lacute" unicode="&#x139;" horiz-adv-x="1054" 
d="M193 1509v136l161 161h205v-135l-162 -162h-204zM113 0v1413h387v-1104h516v-309h-903z" />
    <glyph glyph-name="lacute" unicode="&#x13a;" horiz-adv-x="589" 
d="M172 1475v135l162 162h205v-136l-162 -161h-205zM481 0h-372v1413h372v-1413z" />
    <glyph glyph-name="Lcommaaccent" unicode="&#x13b;" horiz-adv-x="1054" 
d="M446 -371v310h234v-211l-98 -99h-136zM113 0v1413h387v-1104h516v-309h-903z" />
    <glyph glyph-name="lcommaaccent" unicode="&#x13c;" horiz-adv-x="589" 
d="M178 -371v310h234v-211l-99 -99h-135zM481 0h-372v1413h372v-1413z" />
    <glyph glyph-name="Lcaron" unicode="&#x13d;" horiz-adv-x="1054" 
d="M643 1176v309h234v-211l-99 -98h-135zM113 0v1413h387v-1104h516v-309h-903z" />
    <glyph glyph-name="lcaron" unicode="&#x13e;" horiz-adv-x="589" 
d="M559 1104v309h234v-211l-99 -98h-135zM481 0h-372v1413h372v-1413z" />
    <glyph glyph-name="Lslash" unicode="&#x141;" horiz-adv-x="1075" 
d="M33 477v307l98 35v594h389v-450l211 77v-307l-211 -78v-346h514v-309h-903v512z" />
    <glyph glyph-name="lslash" unicode="&#x142;" horiz-adv-x="630" 
d="M6 510v307l123 45v551h373v-416l123 45v-307l-123 -45v-690h-373v555z" />
    <glyph glyph-name="Nacute" unicode="&#x143;" horiz-adv-x="1402" 
d="M563 1509v136l162 161h205v-135l-162 -162h-205zM113 0v1413h393l450 -829v829h344v-1413h-397l-446 842v-842h-344z" />
    <glyph glyph-name="nacute" unicode="&#x144;" horiz-adv-x="1230" 
d="M498 1122v135l161 162h205v-135l-162 -162h-204zM96 0v1051h283l18 -144l144 144h403l197 -197v-854h-371v723l-51 51h-162l-90 -90v-684h-371z" />
    <glyph glyph-name="Ncommaaccent" unicode="&#x145;" horiz-adv-x="1402" 
d="M584 -371v310h233v-211l-98 -99h-135zM113 0v1413h393l450 -829v829h344v-1413h-397l-446 842v-842h-344z" />
    <glyph glyph-name="ncommaaccent" unicode="&#x146;" horiz-adv-x="1230" 
d="M508 -371v310h233v-211l-98 -99h-135zM96 0v1051h283l18 -144l144 144h403l197 -197v-854h-371v723l-51 51h-162l-90 -90v-684h-371z" />
    <glyph glyph-name="Ncaron" unicode="&#x147;" horiz-adv-x="1402" 
d="M543 1513l-156 156v125h178l131 -131h9l131 131h176v-125l-154 -156h-315zM113 0v1413h393l450 -829v829h344v-1413h-397l-446 842v-842h-344z" />
    <glyph glyph-name="ncaron" unicode="&#x148;" horiz-adv-x="1230" 
d="M477 1126l-155 156v125h178l131 -131h8l131 131h176v-125l-153 -156h-316zM96 0v1051h283l18 -144l144 144h403l197 -197v-854h-371v723l-51 51h-162l-90 -90v-684h-371z" />
    <glyph glyph-name="Omacron" unicode="&#x14c;" horiz-adv-x="1394" 
d="M430 1550v207h533v-207h-533zM309 0l-217 217v979l217 217h774l220 -217v-979l-220 -217h-774zM551 285h293l69 69v705l-69 69h-293l-70 -69v-705z" />
    <glyph glyph-name="omacron" unicode="&#x14d;" horiz-adv-x="1234" 
d="M350 1163v207h533v-207h-533zM276 0l-196 199v655l196 197h682l199 -197v-655l-199 -199h-682zM502 227h231l51 52v495l-51 49h-231l-51 -49v-495z" />
    <glyph glyph-name="Ohungarumlaut" unicode="&#x150;" horiz-adv-x="1394" 
d="M444 1509v136l162 161h137v-135l-161 -162h-138zM764 1509v136l162 161h137v-135l-162 -162h-137zM309 0l-217 217v979l217 217h774l220 -217v-979l-220 -217h-774zM551 285h293l69 69v705l-69 69h-293l-70 -69v-705z" />
    <glyph glyph-name="ohungarumlaut" unicode="&#x151;" horiz-adv-x="1234" 
d="M365 1122v135l161 162h138v-135l-162 -162h-137zM684 1122v135l162 162h137v-135l-162 -162h-137zM276 0l-196 199v655l196 197h682l199 -197v-655l-199 -199h-682zM502 227h231l51 52v495l-51 49h-231l-51 -49v-495z" />
    <glyph glyph-name="OE" unicode="&#x152;" horiz-adv-x="1978" 
d="M309 0l-217 217v979l217 217h1583v-293h-606v-258h547v-284h-547v-285h610v-293h-1587zM551 285h346v843h-346l-70 -69v-705z" />
    <glyph glyph-name="oe" unicode="&#x153;" horiz-adv-x="1914" 
d="M276 0l-196 199v655l196 197h601l90 -90l92 90h577l199 -197v-410h-690v-182l37 -37h266l18 19v78h369v-154l-168 -168h-608l-92 92l-90 -92h-601zM502 227h231l51 52v495l-51 49h-231l-51 -49v-495zM1145 639h334v152l-39 36h-256l-39 -36v-152z" />
    <glyph glyph-name="Racute" unicode="&#x154;" horiz-adv-x="1376" 
d="M543 1509v136l162 161h204v-135l-161 -162h-205zM113 0v1413h995l207 -205v-448l-180 -178l211 -582h-404l-178 524h-264v-524h-387zM500 791h370l56 57v246l-56 55h-370v-358z" />
    <glyph glyph-name="racute" unicode="&#x155;" horiz-adv-x="847" 
d="M313 1122v135l162 162h205v-135l-162 -162h-205zM96 0v1051h283l18 -144l144 144h262v-308h-252l-84 -84v-659h-371z" />
    <glyph glyph-name="Rcommaaccent" unicode="&#x156;" horiz-adv-x="1376" 
d="M602 -371v310h234v-211l-99 -99h-135zM113 0v1413h995l207 -205v-448l-180 -178l211 -582h-404l-178 524h-264v-524h-387zM500 791h370l56 57v246l-56 55h-370v-358z" />
    <glyph glyph-name="rcommaaccent" unicode="&#x157;" horiz-adv-x="847" 
d="M164 -371v310h233v-211l-98 -99h-135zM96 0v1051h283l18 -144l144 144h262v-308h-252l-84 -84v-659h-371z" />
    <glyph glyph-name="Rcaron" unicode="&#x158;" horiz-adv-x="1376" 
d="M520 1513l-155 156v125h178l131 -131h8l131 131h176v-125l-153 -156h-316zM113 0v1413h995l207 -205v-448l-180 -178l211 -582h-404l-178 524h-264v-524h-387zM500 791h370l56 57v246l-56 55h-370v-358z" />
    <glyph glyph-name="rcaron" unicode="&#x159;" horiz-adv-x="847" 
d="M291 1126l-156 156v125h178l131 -131h9l131 131h176v-125l-154 -156h-315zM96 0v1051h283l18 -144l144 144h262v-308h-252l-84 -84v-659h-371z" />
    <glyph glyph-name="Sacute" unicode="&#x15a;" horiz-adv-x="1343" 
d="M535 1509v136l161 161h205v-135l-162 -162h-204zM279 0l-199 199v241h387v-116l45 -43h322l40 41v204l-30 31h-584l-174 176v475l205 205h770l199 -199v-241h-388v117l-45 45h-311l-41 -43v-197l31 -33h584l174 -174v-483l-205 -205h-780z" />
    <glyph glyph-name="sacute" unicode="&#x15b;" horiz-adv-x="1157" 
d="M453 1122v135l161 162h205v-135l-162 -162h-204zM233 0l-170 170v133h367v-61l16 -19h259l18 19v145l-18 19h-486l-147 147v315l182 183h659l170 -170v-131h-366v61l-19 16h-237l-17 -16v-145l17 -17h485l148 -147v-320l-183 -182h-678z" />
    <glyph glyph-name="Scircumflex" unicode="&#x15c;" horiz-adv-x="1343" 
d="M356 1513v125l156 156h315l154 -156v-125h-176l-131 132h-8l-131 -132h-179zM279 0l-199 199v241h387v-116l45 -43h322l40 41v204l-30 31h-584l-174 176v475l205 205h770l199 -199v-241h-388v117l-45 45h-311l-41 -43v-197l31 -33h584l174 -174v-483l-205 -205h-780z" />
    <glyph glyph-name="scircumflex" unicode="&#x15d;" horiz-adv-x="1157" 
d="M276 1126v125l156 156h316l153 -156v-125h-176l-131 131h-8l-131 -131h-179zM233 0l-170 170v133h367v-61l16 -19h259l18 19v145l-18 19h-486l-147 147v315l182 183h659l170 -170v-131h-366v61l-19 16h-237l-17 -16v-145l17 -17h485l148 -147v-320l-183 -182h-678z" />
    <glyph glyph-name="Scedilla" unicode="&#x15e;" horiz-adv-x="1343" 
d="M279 0l-199 199v241h387v-116l45 -43h322l40 41v204l-30 31h-584l-174 176v475l205 205h770l199 -199v-241h-388v117l-45 45h-311l-41 -43v-197l31 -33h584l174 -174v-483l-205 -205h-303v-82h121l73 -74v-141l-73 -74h-355v121h226l6 6v60l-6 6h-117l-43 43v135h-309z
" />
    <glyph glyph-name="scedilla" unicode="&#x15f;" horiz-adv-x="1157" 
d="M233 0l-170 170v133h367v-61l16 -19h259l18 19v145l-18 19h-486l-147 147v315l182 183h659l170 -170v-131h-366v61l-19 16h-237l-17 -16v-145l17 -17h485l148 -147v-320l-183 -182h-237v-82h121l73 -74v-141l-73 -74h-355v121h226l6 6v60l-6 6h-117l-43 43v135h-273z" />
    <glyph glyph-name="Scaron" unicode="&#x160;" horiz-adv-x="1343" 
d="M512 1513l-156 156v125h179l131 -131h8l131 131h176v-125l-154 -156h-315zM279 0l-199 199v241h387v-116l45 -43h322l40 41v204l-30 31h-584l-174 176v475l205 205h770l199 -199v-241h-388v117l-45 45h-311l-41 -43v-197l31 -33h584l174 -174v-483l-205 -205h-780z" />
    <glyph glyph-name="scaron" unicode="&#x161;" horiz-adv-x="1157" 
d="M432 1126l-156 156v125h179l131 -131h8l131 131h176v-125l-153 -156h-316zM233 0l-170 170v133h367v-61l16 -19h259l18 19v145l-18 19h-486l-147 147v315l182 183h659l170 -170v-131h-366v61l-19 16h-237l-17 -16v-145l17 -17h485l148 -147v-320l-183 -182h-678z" />
    <glyph glyph-name="Tcommaaccent" unicode="&#x162;" horiz-adv-x="1208" 
d="M487 -371v310h234v-211l-98 -99h-136zM410 0v1102h-377v311h1145v-311h-379v-1102h-389z" />
    <glyph glyph-name="tcommaaccent" unicode="&#x163;" horiz-adv-x="901" 
d="M397 -371v310h234v-211l-99 -99h-135zM371 0l-199 199v594h-145v258h145v258h373v-258h291v-258h-291v-476l41 -43h250v-274h-465z" />
    <glyph glyph-name="Tcaron" unicode="&#x164;" horiz-adv-x="1208" 
d="M446 1513l-155 156v125h178l131 -131h8l131 131h176v-125l-153 -156h-316zM410 0v1102h-377v311h1145v-311h-379v-1102h-389z" />
    <glyph glyph-name="tcaron" unicode="&#x165;" horiz-adv-x="901" 
d="M641 1149v309h233v-211l-98 -98h-135zM371 0l-199 199v594h-145v258h145v258h373v-258h291v-258h-291v-476l41 -43h250v-274h-465z" />
    <glyph glyph-name="Umacron" unicode="&#x16a;" horiz-adv-x="1382" 
d="M319 0l-219 217v1196h389v-1048l70 -70h264l70 70v1048h389v-1196l-217 -217h-746zM426 1550v207h532v-207h-532z" />
    <glyph glyph-name="umacron" unicode="&#x16b;" horiz-adv-x="1230" 
d="M287 0l-197 199v852h371v-723l51 -52h162l90 91v684h371v-1051h-283l-18 143l-144 -143h-403zM346 1163v207h533v-207h-533z" />
    <glyph glyph-name="Ubreve" unicode="&#x16c;" horiz-adv-x="1382" 
d="M319 0l-219 217v1196h389v-1048l70 -70h264l70 70v1048h389v-1196l-217 -217h-746zM475 1520l-96 96v164h223v-88l19 -19h143l18 19v88h224v-164l-99 -96h-432z" />
    <glyph glyph-name="ubreve" unicode="&#x16d;" horiz-adv-x="1230" 
d="M287 0l-197 199v852h371v-723l51 -52h162l90 91v684h371v-1051h-283l-18 143l-144 -143h-403zM395 1133l-96 96v164h223v-88l19 -19h143l18 19v88h224v-164l-99 -96h-432z" />
    <glyph glyph-name="Uring" unicode="&#x16e;" horiz-adv-x="1382" 
d="M547 1495l-82 82v182l82 82h291l82 -82v-182l-82 -82h-291zM629 1599h127l18 19v98l-18 21h-127l-21 -21v-98zM319 0l-219 217v1196h389v-1048l70 -70h264l70 70v1048h389v-1196l-217 -217h-746z" />
    <glyph glyph-name="uring" unicode="&#x16f;" horiz-adv-x="1230" 
d="M467 1108l-82 82v182l82 82h291l82 -82v-182l-82 -82h-291zM549 1212h127l18 19v98l-18 21h-127l-21 -21v-98zM287 0l-197 199v852h371v-723l51 -52h162l90 91v684h371v-1051h-283l-18 143l-144 -143h-403z" />
    <glyph glyph-name="Uhungarumlaut" unicode="&#x170;" horiz-adv-x="1382" 
d="M319 0l-219 217v1196h389v-1048l70 -70h264l70 70v1048h389v-1196l-217 -217h-746zM438 1509v136l162 161h137v-135l-162 -162h-137zM758 1509v136l162 161h137v-135l-162 -162h-137z" />
    <glyph glyph-name="uhungarumlaut" unicode="&#x171;" horiz-adv-x="1230" 
d="M287 0l-197 199v852h371v-723l51 -52h162l90 91v684h371v-1051h-283l-18 143l-144 -143h-403zM360 1122v135l162 162h137v-135l-161 -162h-138zM680 1122v135l162 162h137v-135l-162 -162h-137z" />
    <glyph glyph-name="Uogonek" unicode="&#x172;" horiz-adv-x="1382" 
d="M319 0l-219 217v1196h389v-1048l70 -70h264l70 70v1048h389v-1196l-217 -217h-244l-159 -160v-73l6 -7h153v-131h-289l-73 74v160l137 137h-277z" />
    <glyph glyph-name="uogonek" unicode="&#x173;" horiz-adv-x="1230" 
d="M287 0l-197 199v852h371v-723l51 -52h162l90 91v684h371v-1051h-58l-157 -160v-73l4 -7h153v-131h-286l-74 74v160l135 137l-18 143l-144 -143h-403z" />
    <glyph glyph-name="Ydieresis" unicode="&#x178;" horiz-adv-x="1288" 
d="M451 0v416l-443 997h422l229 -618l244 618h379l-444 -997v-416h-387zM709 1546v223h264v-223h-264zM313 1546v223h267v-223h-267z" />
    <glyph glyph-name="Zacute" unicode="&#x179;" horiz-adv-x="1161" 
d="M444 1509v136l162 161h205v-135l-162 -162h-205zM55 0v240l572 862h-561v311h1030v-239l-572 -861h582v-313h-1051z" />
    <glyph glyph-name="zacute" unicode="&#x17a;" horiz-adv-x="1017" 
d="M373 1122v135l162 162h204v-135l-161 -162h-205zM45 0v205l467 581h-453v265h902v-205l-465 -580h477v-266h-928z" />
    <glyph glyph-name="Zdotaccent" unicode="&#x17b;" horiz-adv-x="1161" 
d="M55 0v240l572 862h-561v311h1030v-239l-572 -861h582v-313h-1051zM494 1516l-72 69v150l72 69h172l71 -69v-150l-71 -69h-172z" />
    <glyph glyph-name="zdotaccent" unicode="&#x17c;" horiz-adv-x="1017" 
d="M45 0v205l467 581h-453v265h902v-205l-465 -580h477v-266h-928zM422 1128l-72 70v150l72 69h172l72 -69v-150l-72 -70h-172z" />
    <glyph glyph-name="Zcaron" unicode="&#x17d;" horiz-adv-x="1161" 
d="M422 1513l-156 156v125h178l131 -131h9l131 131h176v-125l-154 -156h-315zM55 0v240l572 862h-561v311h1030v-239l-572 -861h582v-313h-1051z" />
    <glyph glyph-name="zcaron" unicode="&#x17e;" horiz-adv-x="1017" 
d="M350 1126l-155 156v125h178l131 -131h8l131 131h176v-125l-153 -156h-316zM45 0v205l467 581h-453v265h902v-205l-465 -580h477v-266h-928z" />
    <glyph glyph-name="florin" unicode="&#x192;" horiz-adv-x="1017" 
d="M53 0v279h156l57 57v282h-207v283h207v295l217 217h488v-278h-260l-58 -58v-176h289v-283h-289v-401l-217 -217h-383z" />
    <glyph glyph-name="Scommaaccent" unicode="&#x218;" horiz-adv-x="1343" 
d="M555 -371v310h233v-211l-98 -99h-135zM279 0l-199 199v241h387v-116l45 -43h322l40 41v204l-30 31h-584l-174 176v475l205 205h770l199 -199v-241h-388v117l-45 45h-311l-41 -43v-197l31 -33h584l174 -174v-483l-205 -205h-780z" />
    <glyph glyph-name="scommaaccent" unicode="&#x219;" horiz-adv-x="1157" 
d="M473 -371v310h234v-211l-99 -99h-135zM233 0l-170 170v133h367v-61l16 -19h259l18 19v145l-18 19h-486l-147 147v315l182 183h659l170 -170v-131h-366v61l-19 16h-237l-17 -16v-145l17 -17h485l148 -147v-320l-183 -182h-678z" />
    <glyph glyph-name="uni0237" unicode="&#x237;" horiz-adv-x="579" 
d="M-121 -360v264h203l18 16v1131h371v-1225l-186 -186h-406z" />
    <glyph glyph-name="circumflex" unicode="&#x2c6;" horiz-adv-x="890" 
d="M133 1126v125l156 156h315l154 -156v-125h-176l-131 131h-9l-131 -131h-178z" />
    <glyph glyph-name="caron" unicode="&#x2c7;" horiz-adv-x="890" 
d="M289 1126l-156 156v125h178l131 -131h9l131 131h176v-125l-154 -156h-315z" />
    <glyph glyph-name="breve" unicode="&#x2d8;" horiz-adv-x="892" 
d="M229 1133l-96 96v164h223v-88l19 -19h143l19 19v88h223v-164l-98 -96h-433z" />
    <glyph glyph-name="dotaccent" unicode="&#x2d9;" horiz-adv-x="581" 
d="M205 1128l-72 70v150l72 69h172l72 -69v-150l-72 -70h-172z" />
    <glyph glyph-name="ring" unicode="&#x2da;" horiz-adv-x="720" 
d="M215 1108l-82 82v182l82 82h291l82 -82v-182l-82 -82h-291zM297 1212h127l18 19v98l-18 21h-127l-21 -21v-98z" />
    <glyph glyph-name="ogonek" unicode="&#x2db;" horiz-adv-x="628" 
d="M207 -371l-74 74v160l137 137h226l-160 -160v-73l6 -7h154v-131h-289z" />
    <glyph glyph-name="tilde" unicode="&#x2dc;" horiz-adv-x="907" 
d="M133 1133v174l94 94h215l107 -107h24l13 15v92h188v-174l-94 -94h-217l-107 106h-22l-15 -12v-94h-186z" />
    <glyph glyph-name="hungarumlaut" unicode="&#x2dd;" horiz-adv-x="884" 
d="M133 1122v135l162 162h137v-135l-162 -162h-137zM453 1122v135l161 162h138v-135l-162 -162h-137z" />
    <glyph glyph-name="endash" unicode="&#x2013;" horiz-adv-x="899" 
d="M27 561v301h845v-301h-845z" />
    <glyph glyph-name="emdash" unicode="&#x2014;" horiz-adv-x="1181" 
d="M27 561v301h1128v-301h-1128z" />
    <glyph glyph-name="quoteleft" unicode="&#x2018;" horiz-adv-x="479" 
d="M70 821v473l118 119h222v-135h-129l-11 -10v-107h140v-340h-340z" />
    <glyph glyph-name="quoteright" unicode="&#x2019;" horiz-adv-x="479" 
d="M410 1413v-473l-119 -119h-221v135h129l10 11v106h-139v340h340z" />
    <glyph glyph-name="quotesinglbase" unicode="&#x201a;" horiz-adv-x="479" 
d="M70 -252v135h129l10 11v106h-139v340h340v-473l-119 -119h-221z" />
    <glyph glyph-name="quotedblleft" unicode="&#x201c;" horiz-adv-x="915" 
d="M70 821v473l118 119h222v-135h-129l-11 -10v-107h140v-340h-340zM506 821v473l119 119h221v-135h-129l-10 -10v-107h139v-340h-340z" />
    <glyph glyph-name="quotedblright" unicode="&#x201d;" horiz-adv-x="915" 
d="M846 1413v-473l-119 -119h-221v135h129l10 11v106h-139v340h340zM410 1413v-473l-119 -119h-221v135h129l10 11v106h-139v340h340z" />
    <glyph glyph-name="quotedblbase" unicode="&#x201e;" horiz-adv-x="915" 
d="M70 -252v135h129l10 11v106h-139v340h340v-473l-119 -119h-221zM506 -252v135h129l10 11v106h-139v340h340v-473l-119 -119h-221z" />
    <glyph glyph-name="dagger" unicode="&#x2020;" horiz-adv-x="677" 
d="M203 500v516h-166v221h166v176h270v-176h168v-221h-168v-516h-270z" />
    <glyph glyph-name="daggerdbl" unicode="&#x2021;" horiz-adv-x="677" 
d="M203 500v155h-166v222h166v159h-166v221h166v156h270v-156h168v-221h-168v-159h168v-222h-168v-155h-270z" />
    <glyph glyph-name="bullet" unicode="&#x2022;" horiz-adv-x="624" 
d="M180 426l-133 133v295l133 133h264l136 -133v-295l-136 -133h-264z" />
    <glyph glyph-name="ellipsis" unicode="&#x2026;" horiz-adv-x="1357" 
d="M53 0v354h346v-354h-346zM506 0v354h346v-354h-346zM958 0v354h347v-354h-347z" />
    <glyph glyph-name="perthousand" unicode="&#x2030;" horiz-adv-x="2551" 
d="M180 711l-147 147v410l145 145h424l146 -145v-412l-146 -145h-422zM317 895h148l33 33v274l-33 33h-148l-34 -33v-274zM1145 0l-146 145v412l146 145h422l147 -147v-410l-145 -145h-424zM1282 180h148l34 33v274l-34 33h-148l-33 -33v-274zM1950 0l-146 145v412l146 145
h422l147 -147v-410l-145 -145h-424zM2087 180h147l33 33v274l-33 33h-147l-33 -33v-274zM317 0l859 1413h254l-859 -1413h-254z" />
    <glyph glyph-name="guilsinglleft" unicode="&#x2039;" horiz-adv-x="559" 
d="M229 272l-217 433l217 434h291l-217 -434l217 -433h-291z" />
    <glyph glyph-name="guilsinglright" unicode="&#x203a;" horiz-adv-x="559" 
d="M547 705l-215 -433h-293l217 433l-217 434h293z" />
    <glyph glyph-name="fraction" unicode="&#x2044;" horiz-adv-x="1110" 
d="M0 0l856 1413h254l-856 -1413h-254z" />
    <glyph glyph-name="Euro" unicode="&#x20ac;" horiz-adv-x="1427" 
d="M29 754v184h127v258l217 217h768l217 -217v-260h-389v129l-64 63h-315l-45 -45v-145h358v-184h-358v-82h358v-185h-358v-165l45 -43h315l64 61v141h389v-264l-217 -217h-768l-217 217v270h-127v185h127v82h-127z" />
    <glyph glyph-name="servicemark" unicode="&#x2120;" horiz-adv-x="1296" 
d="M129 821l-88 88v92h145v-53l17 -16h137l16 16v101l-8 8h-229l-78 78v186l92 92h281l88 -88v-94h-146v55l-16 17h-135l-17 -17v-102l9 -8h229l78 -78v-185l-92 -92h-283zM567 821v592h217l101 -461l100 461h215v-592h-133v500l-111 -500h-155l-113 498v-498h-121z" />
    <glyph glyph-name="trademark" unicode="&#x2122;" horiz-adv-x="1200" 
d="M162 821v471h-133v121h411v-121h-129v-471h-149zM471 821v592h217l100 -461l101 461h215v-592h-133v500l-111 -500h-155l-113 498v-498h-121z" />
    <glyph glyph-name="minus" unicode="&#x2212;" horiz-adv-x="733" 
d="M27 557v301h680v-301h-680z" />
    <glyph glyph-name="fi" unicode="&#xfb01;" horiz-adv-x="1419" 
d="M168 0v793h-131v258h131v190l172 172h475v-242h-252l-22 -24v-96h254v-258h-254v-793h-373zM1313 0h-373v1051h373v-1051zM940 1149v264h373v-264h-373z" />
    <glyph glyph-name="fl" unicode="&#xfb02;" horiz-adv-x="1419" 
d="M168 0v793h-131v258h131v190l172 172h475v-242h-252l-22 -24v-96h254v-258h-254v-793h-373zM1313 0h-373v1413h373v-1413z" />
    <glyph glyph-name="commaaccent" horiz-adv-x="499" 
d="M133 -371v310h234v-211l-99 -99h-135z" />
    <glyph glyph-name="published" horiz-adv-x="1759" 
d="M352 0l-260 260v893l260 260h1053l262 -260v-893l-262 -260h-1053zM471 203h815l131 133v741l-131 133h-815l-131 -133v-741zM485 332v751h691l112 -112v-330l-112 -115h-418v-194h-273zM758 711h235l23 22v146l-23 22h-235v-190z" />
    <glyph glyph-name="G.alt" horiz-adv-x="1402" 
d="M309 0l-217 217v979l217 217h793l205 -205v-245h-389v120l-44 45h-323l-70 -69v-719l70 -68h334l33 33v209h-287v283h676v-797h-285l-31 121l-123 -121h-559z" />
    <glyph glyph-name="Gbreve.alt" horiz-adv-x="1402" 
d="M309 0l-217 217v979l217 217h793l205 -205v-245h-389v120l-44 45h-323l-70 -69v-719l70 -68h334l33 33v209h-287v283h676v-797h-285l-31 121l-123 -121h-559zM481 1520l-96 96v164h223v-88l19 -19h143l18 19v88h224v-164l-99 -96h-432z" />
    <glyph glyph-name="Gcircumflex.alt" horiz-adv-x="1402" 
d="M385 1513v125l156 156h315l154 -156v-125h-176l-132 132h-8l-131 -132h-178zM309 0l-217 217v979l217 217h793l205 -205v-245h-389v120l-44 45h-323l-70 -69v-719l70 -68h334l33 33v209h-287v283h676v-797h-285l-31 121l-123 -121h-559z" />
    <glyph glyph-name="Gcommaaccent.alt" horiz-adv-x="1402" 
d="M582 -371v310h233v-211l-98 -99h-135zM309 0l-217 217v979l217 217h793l205 -205v-245h-389v120l-44 45h-323l-70 -69v-719l70 -68h334l33 33v209h-287v283h676v-797h-285l-31 121l-123 -121h-559z" />
    <glyph glyph-name="I.alt" horiz-adv-x="657" 
d="M524 0h-391v1413h391v-1413z" />
    <glyph glyph-name="Iacute.alt" horiz-adv-x="657" 
d="M193 1509v136l161 161h205v-135l-162 -162h-204zM524 0h-391v1413h391v-1413z" />
    <glyph glyph-name="Igrave.alt" horiz-adv-x="657" 
d="M524 0h-391v1413h391v-1413zM260 1509l-162 162v135h205l162 -161v-136h-205z" />
    <glyph glyph-name="Icircumflex.alt" horiz-adv-x="657" 
d="M16 1513v125l156 156h315l154 -156v-125h-176l-131 132h-8l-131 -132h-179zM524 0h-391v1413h391v-1413z" />
    <glyph glyph-name="Idieresis.alt" horiz-adv-x="657" 
d="M395 1546v223h264v-223h-264zM0 1546v223h266v-223h-266zM524 0h-391v1413h391v-1413z" />
    <glyph glyph-name="Idotaccent.alt" horiz-adv-x="657" 
d="M524 0h-391v1413h391v-1413zM242 1516l-72 69v150l72 69h172l71 -69v-150l-71 -69h-172z" />
    <glyph glyph-name="Imacron.alt" horiz-adv-x="657" 
d="M524 0h-391v1413h391v-1413zM63 1550v207h533v-207h-533z" />
    <glyph glyph-name="Iogonek.alt" horiz-adv-x="657" 
d="M524 0h-166l-159 -160v-73l6 -7h153v-131h-288l-74 74v160l137 137v1413h391v-1413z" />
    <glyph glyph-name="J.alt" 
d="M264 0l-217 217v401h387v-253l70 -70h201l69 70v1048h389v-1196l-217 -217h-682z" />
    <glyph glyph-name="Jcircumflex.alt" 
d="M653 1513v125l156 156h315l154 -156v-125h-176l-131 132h-8l-132 -132h-178zM264 0l-217 217v401h387v-253l70 -70h201l69 70v1048h389v-1196l-217 -217h-682z" />
    <glyph glyph-name="Q.alt" horiz-adv-x="1394" 
d="M309 0l-217 217v979l217 217h774l220 -217v-979l-129 -127l149 -149l-209 -211l-270 270h-535zM551 285h293l69 69v705l-69 69h-293l-70 -69v-705z" />
    <glyph glyph-name="a.alt" horiz-adv-x="1255" 
d="M276 0l-196 199v655l196 197h447l137 -138l19 138h282v-1051h-282l-19 137l-137 -137h-447zM502 233h200l86 86v412l-86 86h-200l-51 -51v-481z" />
    <glyph glyph-name="aacute.alt" horiz-adv-x="1255" 
d="M471 1122v135l162 162h205v-135l-162 -162h-205zM276 0l-196 199v655l196 197h447l137 -138l19 138h282v-1051h-282l-19 137l-137 -137h-447zM502 233h200l86 86v412l-86 86h-200l-51 -51v-481z" />
    <glyph glyph-name="agrave.alt" horiz-adv-x="1255" 
d="M276 0l-196 199v655l196 197h447l137 -138l19 138h282v-1051h-282l-19 137l-137 -137h-447zM502 233h200l86 86v412l-86 86h-200l-51 -51v-481zM537 1122l-162 162v135h205l161 -162v-135h-204z" />
    <glyph glyph-name="acircumflex.alt" horiz-adv-x="1255" 
d="M293 1126v125l156 156h315l154 -156v-125h-177l-131 131h-8l-131 -131h-178zM276 0l-196 199v655l196 197h447l137 -138l19 138h282v-1051h-282l-19 137l-137 -137h-447zM502 233h200l86 86v412l-86 86h-200l-51 -51v-481z" />
    <glyph glyph-name="adieresis.alt" horiz-adv-x="1255" 
d="M672 1159v223h264v-223h-264zM276 1159v223h267v-223h-267zM276 0l-196 199v655l196 197h447l137 -138l19 138h282v-1051h-282l-19 137l-137 -137h-447zM502 233h200l86 86v412l-86 86h-200l-51 -51v-481z" />
    <glyph glyph-name="atilde.alt" horiz-adv-x="1255" 
d="M276 0l-196 199v655l196 197h447l137 -138l19 138h282v-1051h-282l-19 137l-137 -137h-447zM502 233h200l86 86v412l-86 86h-200l-51 -51v-481zM287 1133v174l94 94h215l106 -107h25l12 15v92h189v-174l-94 -94h-218l-106 106h-23l-14 -12v-94h-186z" />
    <glyph glyph-name="aring.alt" horiz-adv-x="1255" 
d="M461 1108l-82 82v182l82 82h291l82 -82v-182l-82 -82h-291zM543 1212h127l18 19v98l-18 21h-127l-21 -21v-98zM276 0l-196 199v655l196 197h447l137 -138l19 138h282v-1051h-282l-19 137l-137 -137h-447zM502 233h200l86 86v412l-86 86h-200l-51 -51v-481z" />
    <glyph glyph-name="abreve.alt" horiz-adv-x="1255" 
d="M276 0l-196 199v655l196 197h447l137 -138l19 138h282v-1051h-282l-19 137l-137 -137h-447zM502 233h200l86 86v412l-86 86h-200l-51 -51v-481zM389 1133l-96 96v164h223v-88l19 -19h143l18 19v88h224v-164l-99 -96h-432z" />
    <glyph glyph-name="amacron.alt" horiz-adv-x="1255" 
d="M276 0l-196 199v655l196 197h447l137 -138l19 138h282v-1051h-282l-19 137l-137 -137h-447zM502 233h200l86 86v412l-86 86h-200l-51 -51v-481zM340 1163v207h532v-207h-532z" />
    <glyph glyph-name="aogonek.alt" horiz-adv-x="1255" 
d="M276 0l-196 199v655l196 197h447l137 -138l19 138h282v-1051h-57l-160 -160v-73l6 -7h154v-131h-289l-74 74v160l138 137l-19 137l-137 -137h-447zM502 233h200l86 86v412l-86 86h-200l-51 -51v-481z" />
    <glyph glyph-name="g.alt" horiz-adv-x="1206" 
d="M213 -360l-170 167v173l141 141l-71 72v88l90 90l-127 125v399l155 156h951v-213h-168l102 -103v-231l-170 -170h-508v-98h572l168 -170v-259l-168 -167h-797zM455 541h282l23 24v240l-23 24h-282l-23 -24v-240zM420 -143h387l22 24v99l-22 24h-387l-23 -24v-99z" />
    <glyph glyph-name="gbreve.alt" horiz-adv-x="1206" 
d="M213 -360l-170 167v173l141 141l-71 72v88l90 90l-127 125v399l155 156h951v-213h-168l102 -103v-231l-170 -170h-508v-98h572l168 -170v-259l-168 -167h-797zM455 541h282l23 24v240l-23 24h-282l-23 -24v-240zM420 -143h387l22 24v99l-22 24h-387l-23 -24v-99z
M393 1133l-96 96v164h223v-88l19 -19h143l18 19v88h224v-164l-99 -96h-432z" />
    <glyph glyph-name="gcircumflex.alt" horiz-adv-x="1206" 
d="M297 1126v125l156 156h315l154 -156v-125h-177l-131 131h-8l-131 -131h-178zM213 -360l-170 167v173l141 141l-71 72v88l90 90l-127 125v399l155 156h951v-213h-168l102 -103v-231l-170 -170h-508v-98h572l168 -170v-259l-168 -167h-797zM455 541h282l23 24v240l-23 24
h-282l-23 -24v-240zM420 -143h387l22 24v99l-22 24h-387l-23 -24v-99z" />
    <glyph glyph-name="gcommaaccent.alt" horiz-adv-x="1206" 
d="M727 1432v-310h-233v211l98 99h135zM213 -360l-170 167v173l141 141l-71 72v88l90 90l-127 125v399l155 156h951v-213h-168l102 -103v-231l-170 -170h-508v-98h572l168 -170v-259l-168 -167h-797zM455 541h282l23 24v240l-23 24h-282l-23 -24v-240zM420 -143h387l22 24
v99l-22 24h-387l-23 -24v-99z" />
    <glyph glyph-name="at.alt1" horiz-adv-x="2234" 
d="M100 0v1116l299 297h1444l299 -297v-917l-198 -199h-568l-18 137l-137 -137h-492l-170 170v293l168 168h549v141l-43 43h-232l-24 -24v-68h-393v176l166 164h714l191 -191v-636h94l45 45v731l-154 153h-1034l-153 -153v-1012h-353zM975 240h227l74 71v117h-301l-35 -37
v-115z" />
    <glyph glyph-name="at.alt2" horiz-adv-x="2136" 
d="M389 -344l-297 297v1151l297 297h1364l297 -297v-907l-197 -197h-536l-17 137l-137 -137h-454l-199 199v655l199 197h454l137 -138l17 138h282v-838h95l45 45v750l-154 153h-1024l-153 -153v-955l153 -153h1022v-244h-1194zM932 233h211l86 86v412l-86 86h-211l-49 -51
v-481z" />
    <glyph glyph-name="at.alt3" horiz-adv-x="2271" 
d="M100 0v1116l299 297h1483l297 -297v-917l-199 -199h-567l-18 137l-138 -137h-495l-191 190v682l191 191h495l138 -139l18 139h281v-827h92l45 45v731l-154 153h-1071l-153 -153v-1012h-353zM1014 242h209l86 88v403l-86 86h-209l-58 -57v-461z" />
    <glyph glyph-name="ampersand.alt" horiz-adv-x="1384" 
d="M279 0l-197 197v407l149 150l-145 145v318l195 196h778l198 -199v-200h-389v86l-43 45h-303l-49 -49v-135l19 -19l432 -213v121h389v-666l-185 -184h-849zM518 268h373l33 33v64l-416 200l-37 -39v-209z" />
    <glyph glyph-name="ordfeminine.alt" horiz-adv-x="808" 
d="M176 702l-127 127v457l127 127h291l88 -88l16 88h189v-711h-189l-16 89l-88 -89h-291zM328 868h147l39 41v297l-39 41h-147l-35 -35v-309z" />
    <glyph glyph-name="zero.tabular" 
d="M295 0l-217 217v979l217 217h674l217 -217v-979l-217 -217h-674zM498 268h262l61 64v749l-61 64h-262l-64 -64v-749z" />
    <glyph glyph-name="one.tabular" 
d="M172 0v268h297v879h-297v266h666v-1145h288v-268h-954z" />
    <glyph glyph-name="two.tabular" 
d="M104 0v625l175 176h507l25 24v291l-27 29h-284l-29 -29v-145h-362v243l198 199h664l205 -205v-512l-175 -174h-507l-25 -24v-213h707v-285h-1072z" />
    <glyph glyph-name="three.tabular" 
d="M262 0l-194 197v254h362v-158l37 -37h319l41 41v244l-43 43h-469v268h465l45 43v217l-41 41h-317l-37 -37v-147h-362v248l194 196h731l197 -196v-351l-146 -143l148 -148v-378l-197 -197h-733z" />
    <glyph glyph-name="four.tabular" 
d="M756 0v350h-707v209l217 854h342l-168 -782h316v782h364v-782h107v-281h-107v-350h-364z" />
    <glyph glyph-name="five.tabular" 
d="M291 0l-201 199v239h365v-133l39 -39h288l41 41v330l-30 33h-285l-74 -74h-344v817h1073v-276h-708v-293l92 92h452l189 -191v-540l-205 -205h-692z" />
    <glyph glyph-name="six.tabular" 
d="M285 0l-205 205v1003l205 205h704l199 -199v-215h-365v115l-37 37h-286l-56 -55v-310l103 105h442l199 -199v-487l-205 -205h-698zM487 264h293l43 43v277l-43 43h-291l-45 -47v-273z" />
    <glyph glyph-name="seven.tabular" 
d="M408 0v528l335 590h-649v295h1082v-242l-404 -677v-494h-364z" />
    <glyph glyph-name="eight.tabular" 
d="M266 0l-196 197v368l157 158l-155 154v340l196 196h725l197 -196v-340l-154 -154l158 -158v-368l-197 -197h-731zM481 252h299l49 49v246l-49 47h-299l-47 -47v-246zM485 842h293l47 49v223l-47 49h-293l-49 -49v-223z" />
    <glyph glyph-name="nine.tabular" 
d="M274 0l-200 199v225h364v-125l39 -37h287l55 55v320l-102 -102h-445l-198 198v475l207 205h696l207 -205v-1003l-207 -205h-703zM483 799h289l47 45v262l-43 43h-293l-45 -43v-264z" />
    <glyph glyph-name="plus.tabular" 
d="M190 567v281h295v276h293v-276h297v-281h-297v-284h-293v284h-295z" />
    <glyph glyph-name="minus.tabular" 
d="M256 557v301h752v-301h-752z" />
    <glyph glyph-name="multiply.tabular" 
d="M406 279l-201 200l225 226l-225 227l201 201l225 -228l227 228l201 -201l-228 -227l228 -226l-201 -200l-227 225z" />
    <glyph glyph-name="divide.tabular" 
d="M496 244v235h272v-235h-272zM213 561v287h836v-287h-836zM496 936v233h272v-233h-272z" />
    <glyph glyph-name="equal.tabular" 
d="M252 764v280h760v-280h-760zM252 356v281h760v-281h-760z" />
    <glyph glyph-name="greater.tabular" 
d="M1075 535l-844 -324v319l553 177l-553 176v319l844 -321v-346z" />
    <glyph glyph-name="less.tabular" 
d="M1032 211l-844 324v346l844 321v-319l-553 -176l553 -177v-319z" />
    <glyph glyph-name="numbersign.tabular" 
d="M262 297v207h-164v223h164v256h-164v225h164v205h268v-205h203v205h268v-205h164v-225h-164v-256h164v-223h-164v-207h-268v207h-203v-207h-268zM530 727h203v256h-203v-256z" />
    <glyph glyph-name="dollar.tabular" 
d="M272 39l-192 190v215h364v-110l31 -31h307l35 35v194l-31 33h-524l-174 174v439l197 198h176v207h344v-207h182l191 -192v-215h-363v110l-33 33h-295l-36 -37v-188l32 -31h525l174 -176v-444l-199 -197h-178v-209h-344v209h-189z" />
    <glyph glyph-name="cent.tabular" 
d="M287 145l-211 209v705l211 211h184v182h344v-182h178l211 -211v-244h-364v133l-52 51h-299l-49 -51v-491l49 -49h299l52 49v143h364v-246l-211 -209h-178v-184h-344v184h-184z" />
    <glyph glyph-name="sterling.tabular" 
d="M76 0v272l90 90v195h-92v266h92v373l217 217h600l217 -217v-268h-364v164l-52 51h-196l-58 -58v-262h363v-266h-363v-182l-84 -84h754v-291h-1124z" />
    <glyph glyph-name="yen.tabular" 
d="M113 467v180h243l-309 766h397l203 -608l217 608h353l-312 -766h244v-180h-318l-18 -45v-27h336v-180h-336v-215h-364v215h-336v180h336v27l-19 45h-317z" />
    <glyph glyph-name="florin.tabular" 
d="M141 0v279h205l57 57v282h-256v283h256v295l220 217h507v-278h-305l-57 -58v-176h332v-283h-332v-401l-217 -217h-410z" />
    <glyph glyph-name="Euro.tabular" 
d="M49 754v184h80v258l217 217h653l218 -217v-260h-365v151l-55 56h-267l-36 -37v-168h288v-184h-288v-82h288v-185h-288v-186l36 -37h267l55 55v162h365v-264l-218 -217h-653l-217 217v270h-80v185h80v82h-80z" />
    <glyph glyph-name="section.tabular" 
d="M279 -254l-199 201v231h364v-129l37 -37h303l35 35v234h-604l-129 127v108h1098v-563l-207 -207h-698zM86 643v565l207 205h692l195 -192v-234h-365v125l-37 37h-293l-34 -35v-235h606l127 -127v-109h-1098z" />
    <glyph glyph-name="space.tabular" horiz-adv-x="630" 
 />
    <glyph glyph-name="colon.tabular" horiz-adv-x="630" 
d="M143 0v354h346v-354h-346zM143 569v355h346v-355h-346z" />
    <glyph glyph-name="semicolon.tabular" horiz-adv-x="630" 
d="M143 -252v135h136l10 11v106h-146v354h346v-487l-118 -119h-228zM143 569v355h346v-355h-346z" />
    <glyph glyph-name="comma.tabular" horiz-adv-x="630" 
d="M141 -252v135h135l11 11v106h-146v354h346v-487l-118 -119h-228z" />
    <glyph glyph-name="period.tabular" horiz-adv-x="630" 
d="M143 0v354h346v-354h-346z" />
    <glyph glyph-name="parenleft.tabular" horiz-adv-x="659" 
d="M307 -145l-205 204v1293l205 204h311v-272h-102l-55 -55v-1047l55 -55h102v-272h-311z" />
    <glyph glyph-name="parenright.tabular" horiz-adv-x="659" 
d="M555 59l-203 -204h-313v272h102l56 55v1047l-56 55h-102v272h313l203 -204v-1293z" />
    <glyph glyph-name="bracketleft.tabular" horiz-adv-x="659" 
d="M111 -145v1701h514v-272h-156v-1157h156v-272h-514z" />
    <glyph glyph-name="bracketright.tabular" horiz-adv-x="659" 
d="M547 1556v-1701h-514v272h157v1157h-157v272h514z" />
    <glyph glyph-name="braceleft.tabular" horiz-adv-x="659" 
d="M319 -145l-202 204v484l-25 24h-100v303h100l25 25v457l202 204h318v-272h-109l-53 -55v-385l-123 -123l123 -123v-416l53 -55h109v-272h-318z" />
    <glyph glyph-name="braceright.tabular" horiz-adv-x="659" 
d="M543 59l-203 -204h-317v272h108l55 55v416l123 123l-123 123v385l-55 55h-108v272h317l203 -204v-457l24 -25h101v-303h-101l-24 -24v-484z" />
    <glyph glyph-name="zero.numerator" horiz-adv-x="872" 
d="M186 637l-123 123v530l123 123h500l123 -123v-530l-123 -123h-500zM358 827h156l33 33v330l-33 35h-156l-32 -35v-330z" />
    <glyph glyph-name="one.numerator" horiz-adv-x="702" 
d="M47 637v201h184v374h-180v201h443v-575h184v-201h-631z" />
    <glyph glyph-name="two.numerator" horiz-adv-x="854" 
d="M61 637v340l113 115h344l12 14v108l-14 17h-170l-20 -19v-51h-263v129l123 123h484l123 -123v-262l-113 -113h-342l-14 -14v-74h469v-190h-732z" />
    <glyph glyph-name="three.numerator" horiz-adv-x="847" 
d="M164 637l-123 123v119h262v-48l19 -16h192l18 16v95l-18 18h-305v170h303l18 19v88l-18 16h-190l-17 -16v-43h-264v112l123 123h506l123 -123v-166l-95 -94l97 -96v-174l-123 -123h-508z" />
    <glyph glyph-name="four.numerator" horiz-adv-x="874" 
d="M506 637v172h-479v143l153 461h244l-117 -414h199v414h258v-414h74v-190h-74v-172h-258z" />
    <glyph glyph-name="five.numerator" horiz-adv-x="864" 
d="M188 637l-122 123v129h264v-60l18 -18h176l19 16v146l-19 16h-164l-41 -41h-251v465h718v-182h-456v-139l59 59h299l117 -117v-274l-123 -123h-494z" />
    <glyph glyph-name="six.numerator" horiz-adv-x="874" 
d="M186 637l-123 123v530l123 123h500l123 -123v-106h-260v39l-23 22h-174l-26 -26v-152l59 59h326l102 -104v-262l-123 -123h-504zM350 809h178l25 25v129l-25 22h-172l-30 -29v-122z" />
    <glyph glyph-name="seven.numerator" horiz-adv-x="780" 
d="M231 637v268l211 297h-419v211h735v-164l-264 -375v-237h-263z" />
    <glyph glyph-name="eight.numerator" horiz-adv-x="880" 
d="M178 637l-123 123v176l99 98l-97 94v162l123 123h520l123 -123v-162l-96 -94l98 -98v-176l-123 -123h-524zM338 803h205l20 20v113l-20 20h-205l-21 -20v-113zM340 1108h201l20 20v101l-20 20h-201l-21 -20v-101z" />
    <glyph glyph-name="nine.numerator" horiz-adv-x="874" 
d="M188 637l-122 123v117h258v-48l22 -22h176l27 27v155l-55 -55h-330l-103 104v252l123 123h504l123 -123v-530l-123 -123h-500zM346 1075h172l31 29v115l-25 22h-178l-24 -22v-121z" />
    <glyph glyph-name="zero.denominator" horiz-adv-x="872" 
d="M186 0l-123 123v530l123 123h500l123 -123v-530l-123 -123h-500zM358 190h156l33 33v330l-33 35h-156l-32 -35v-330z" />
    <glyph glyph-name="one.denominator" horiz-adv-x="702" 
d="M47 0v201h184v374h-180v201h443v-575h184v-201h-631z" />
    <glyph glyph-name="two.denominator" horiz-adv-x="854" 
d="M61 0v340l113 115h344l12 14v109l-14 16h-170l-20 -19v-51h-263v129l123 123h484l123 -123v-262l-113 -112h-342l-14 -15v-74h469v-190h-732z" />
    <glyph glyph-name="three.denominator" horiz-adv-x="847" 
d="M164 0l-123 123v119h262v-47l19 -17h192l18 17v94l-18 18h-305v170h303l18 19v88l-18 16h-190l-17 -16v-43h-264v112l123 123h506l123 -123v-166l-95 -94l97 -96v-174l-123 -123h-508z" />
    <glyph glyph-name="four.denominator" horiz-adv-x="874" 
d="M506 0v172h-479v143l153 461h244l-117 -414h199v414h258v-414h74v-190h-74v-172h-258z" />
    <glyph glyph-name="five.denominator" horiz-adv-x="864" 
d="M188 0l-122 123v129h264v-59l18 -19h176l19 16v146l-19 16h-164l-41 -41h-251v465h718v-182h-456v-139l59 59h299l117 -117v-274l-123 -123h-494z" />
    <glyph glyph-name="six.denominator" horiz-adv-x="874" 
d="M186 0l-123 123v530l123 123h500l123 -123v-106h-260v39l-23 22h-174l-26 -26v-152l59 59h326l102 -104v-262l-123 -123h-504zM350 172h178l25 25v129l-25 22h-172l-30 -29v-122z" />
    <glyph glyph-name="seven.denominator" horiz-adv-x="780" 
d="M231 0v268l211 297h-419v211h735v-164l-264 -374v-238h-263z" />
    <glyph glyph-name="eight.denominator" horiz-adv-x="880" 
d="M178 0l-123 123v176l99 98l-97 95v161l123 123h520l123 -123v-161l-96 -95l98 -98v-176l-123 -123h-524zM338 166h205l20 20v113l-20 20h-205l-21 -20v-113zM340 471h201l20 21v100l-20 20h-201l-21 -20v-100z" />
    <glyph glyph-name="nine.denominator" horiz-adv-x="874" 
d="M188 0l-122 123v117h258v-47l22 -23h176l27 27v155l-55 -55h-330l-103 104v252l123 123h504l123 -123v-530l-123 -123h-500zM346 438h172l31 29v115l-25 22h-178l-24 -22v-121z" />
    </font>
</defs>
</svg>
